<svg width="21" height="21" viewBox="0 0 21 21" fill="none" xmlns="http://www.w3.org/2000/svg">
<path fill-rule="evenodd" clip-rule="evenodd" d="M20.0567 1.05644C20.4961 1.4959 20.4961 2.20839 20.0567 2.64784L12.148 10.5565L20.0567 18.4651C20.4961 18.9046 20.4961 19.6171 20.0567 20.0565C19.6172 20.496 18.9047 20.496 18.4653 20.0565L10.5566 12.1479L2.64799 20.0565C2.20854 20.496 1.49605 20.496 1.05659 20.0565C0.617139 19.6171 0.617139 18.9046 1.05659 18.4651L8.96524 10.5565L1.05659 2.64784C0.617141 2.20839 0.61714 1.4959 1.05659 1.05644C1.49605 0.61699 2.20854 0.616991 2.64799 1.05644L10.5566 8.96509L18.4653 1.05644C18.9047 0.616991 19.6172 0.616991 20.0567 1.05644Z" fill="white"/>
</svg>
