<svg width="20" height="16" viewBox="0 0 20 16" fill="none" xmlns="http://www.w3.org/2000/svg">
<path d="M16.8828 1.68564C15.6169 1.10482 14.2595 0.676875 12.8401 0.431754C12.8143 0.427021 12.7885 0.438852 12.7752 0.462476C12.6006 0.773 12.4072 1.17806 12.2718 1.49646C10.7452 1.2679 9.22646 1.2679 7.73121 1.49646C7.59575 1.171 7.39536 0.773 7.21998 0.462476C7.20668 0.439628 7.18084 0.427797 7.15501 0.431754C5.73649 0.676061 4.37903 1.10401 3.11234 1.68564C3.10136 1.69037 3.09197 1.69825 3.08573 1.70849C0.510923 5.55522 -0.194457 9.30742 0.151561 13.0131C0.153113 13.0312 0.163315 13.0485 0.177396 13.0595C1.87618 14.3071 3.52178 15.0645 5.13678 15.5665C5.16261 15.5744 5.19 15.5649 5.20645 15.5436C5.58846 15.0219 5.92901 14.4718 6.22099 13.8934C6.23821 13.8595 6.22177 13.8193 6.18654 13.8059C5.64638 13.601 5.13204 13.3511 4.63726 13.0675C4.59812 13.0446 4.59498 12.9886 4.63102 12.9618C4.73513 12.8838 4.83929 12.8026 4.93871 12.7207C4.95671 12.7057 4.98177 12.7025 5.00291 12.712C8.2533 14.196 11.7722 14.196 14.9843 12.712C15.0054 12.7017 15.0305 12.7049 15.0493 12.7198C15.1487 12.8018 15.2528 12.8838 15.3577 12.9618C15.3937 12.9886 15.3914 13.0446 15.3523 13.0674C14.8575 13.3566 14.3431 13.6009 13.8022 13.8051C13.767 13.8184 13.7513 13.8595 13.7686 13.8933C14.0668 14.471 14.4074 15.0211 14.7823 15.5428C14.798 15.5649 14.8262 15.5744 14.852 15.5665C16.4748 15.0645 18.1204 14.3071 19.8192 13.0595C19.8341 13.0485 19.8435 13.0319 19.8451 13.0138C20.2592 8.72966 19.1514 5.00823 16.9086 1.70923C16.9031 1.69825 16.8937 1.69037 16.8828 1.68564ZM6.70646 10.7567C5.72788 10.7567 4.92152 9.85829 4.92152 8.75491C4.92152 7.65154 5.71221 6.75313 6.70646 6.75313C7.70848 6.75313 8.50704 7.65945 8.49136 8.75491C8.49136 9.85829 7.70064 10.7567 6.70646 10.7567ZM13.3059 10.7567C12.3274 10.7567 11.521 9.85829 11.521 8.75491C11.521 7.65154 12.3117 6.75313 13.3059 6.75313C14.308 6.75313 15.1065 7.65945 15.0908 8.75491C15.0908 9.85829 14.308 10.7567 13.3059 10.7567Z" fill="#818987"/>
</svg>
