<svg width="20" height="12" viewBox="0 0 20 12" fill="none" xmlns="http://www.w3.org/2000/svg">
<path d="M11.2811 6C11.2811 9.13657 8.75574 11.6793 5.64055 11.6793C2.52535 11.6793 0 9.13657 0 6C0 2.86344 2.52535 0.32074 5.64055 0.32074C8.7557 0.32074 11.2811 2.86344 11.2811 6Z" fill="#818987"/>
<path d="M17.4689 6.00001C17.4689 8.95255 16.2062 11.346 14.6486 11.346C13.091 11.346 11.8284 8.95255 11.8284 6.00001C11.8284 3.04747 13.091 0.653992 14.6486 0.653992C16.2062 0.653992 17.4689 3.04747 17.4689 6.00001Z" fill="#818987"/>
<path d="M20 6.00001C20 8.64536 19.5559 10.7898 19.0081 10.7898C18.4602 10.7898 18.0162 8.64536 18.0162 6.00001C18.0162 3.35466 18.4602 1.21021 19.0081 1.21021C19.5559 1.21021 20 3.35466 20 6.00001Z" fill="#818987"/>
</svg>
