<svg width="20" height="20" viewBox="0 0 20 20" fill="none" xmlns="http://www.w3.org/2000/svg">
<path d="M10 9.13683L17.2264 4.89725C17.0184 4.58944 16.7386 4.33683 16.4113 4.16117C16.0839 3.98552 15.7187 3.89208 15.3472 3.88892H4.65281C4.2794 3.88875 3.91161 3.97984 3.58144 4.15424C3.25127 4.32865 2.96871 4.58109 2.75836 4.88961L10 9.13683Z" fill="#818987"/>
<path d="M10.7639 10.4507C10.5318 10.5854 10.2684 10.6565 10 10.657C9.7324 10.6588 9.46898 10.5903 9.23614 10.4584L2.36115 6.43268V13.8195C2.36115 14.4273 2.60259 15.0102 3.03236 15.4399C3.46213 15.8697 4.04502 16.1112 4.65281 16.1112H15.3473C15.955 16.1112 16.5379 15.8697 16.9677 15.4399C17.3975 15.0102 17.6389 14.4273 17.6389 13.8195V6.43268L10.7639 10.4507Z" fill="#818987"/>
</svg>
