<svg width="20" height="20" viewBox="0 0 20 20" fill="none" xmlns="http://www.w3.org/2000/svg">
<path d="M10 0.833313C4.96517 0.833313 0.833344 4.96514 0.833344 9.99998C0.833344 14.2964 3.84815 18.1993 7.85157 19.1666V16.1339C7.45489 16.2208 7.08983 16.2233 6.68602 16.1043C6.14429 15.9444 5.70411 15.5835 5.37737 15.0333C5.1691 14.6819 4.79998 14.3009 4.41491 14.3289L4.3205 13.2589C5.15316 13.1875 5.8735 13.7662 6.30109 14.4846C6.49104 14.804 6.70966 14.9913 6.99024 15.0741C7.26145 15.154 7.55267 15.1157 7.892 14.9958C7.97718 14.3164 8.28839 14.0621 8.52352 13.7041V13.7035C6.1359 13.3474 5.18435 12.0807 4.80669 11.0809C4.30623 9.75338 4.57479 8.09492 5.45976 7.04686C5.47696 7.02644 5.50801 6.973 5.49598 6.93566C5.09021 5.70996 5.58466 4.69602 5.60285 4.58846C6.07114 4.72694 6.14723 4.44915 7.63701 5.35426L7.89451 5.50896C8.00221 5.57316 7.96837 5.53652 8.07607 5.5284C8.69808 5.35944 9.3538 5.26614 9.99987 5.25775C10.6508 5.26614 11.3024 5.35944 11.9501 5.53526L12.0335 5.54365C12.0262 5.54253 12.0561 5.53833 12.1063 5.5084C13.9673 4.38117 13.9005 4.7496 14.3996 4.58734C14.4176 4.69505 14.9055 5.72548 14.504 6.93566C14.4499 7.10239 16.1175 8.62937 15.1932 11.0805C14.8155 12.0807 13.8641 13.3474 11.4765 13.7035V13.7041C11.7825 14.1705 12.1503 14.4187 12.1483 15.381V19.1666C16.1519 18.1993 19.1665 14.2964 19.1665 9.99998C19.1667 4.96514 15.0349 0.833313 10 0.833313V0.833313Z" fill="#818987"/>
</svg>
