<svg width="14" height="18" viewBox="0 0 14 18" fill="none" xmlns="http://www.w3.org/2000/svg">
<path fill-rule="evenodd" clip-rule="evenodd" d="M7.95471 0.788208H2.41652C1.85964 0.788208 1.32492 1.00974 0.930756 1.40314C0.537354 1.79731 0.315826 2.33203 0.315826 2.8889V15.1111C0.315826 15.668 0.537354 16.2027 0.930756 16.5969C1.32492 16.9903 1.85964 17.2118 2.41652 17.2118H11.5832C12.7435 17.2118 13.6839 16.2715 13.6839 15.1111V6.51738H10.0554C8.89506 6.51738 7.95471 5.57703 7.95471 4.41668V0.788208ZM9.10054 1.12661V4.41668C9.10054 4.94376 9.52832 5.37154 10.0554 5.37154H13.3455C13.3279 5.35245 13.3103 5.33411 13.292 5.31578C12.5144 4.53814 9.93395 1.95772 9.15631 1.18008C9.13797 1.16175 9.11964 1.14418 9.10054 1.12661V1.12661Z" fill="#818987"/>
</svg>
