<svg width="20" height="16" viewBox="0 0 20 16" fill="none" xmlns="http://www.w3.org/2000/svg">
<path d="M19.1667 2.3155C18.4849 2.61456 17.7584 2.81279 17.0011 2.90904C17.7802 2.44383 18.3749 1.71279 18.6545 0.831646C17.928 1.26477 17.1259 1.57071 16.2712 1.74144C15.5814 1.00696 14.5982 0.552063 13.5257 0.552063C11.4449 0.552063 9.7697 2.24102 9.7697 4.31154C9.7697 4.60946 9.79491 4.89592 9.85678 5.16862C6.73209 5.01623 3.9672 3.51863 2.1098 1.23727C1.78553 1.79988 1.59532 2.44383 1.59532 3.13706C1.59532 4.43873 2.26564 5.59258 3.2648 6.2606C2.66095 6.24915 2.06855 6.07383 1.56668 5.79769C1.56668 5.80915 1.56668 5.82404 1.56668 5.83894C1.56668 7.6654 2.86949 9.18248 4.57793 9.53196C4.27199 9.6156 3.93855 9.65571 3.59251 9.65571C3.35188 9.65571 3.10897 9.64196 2.88095 9.59154C3.36793 11.08 4.7498 12.1742 6.39293 12.2098C5.11418 13.2101 3.49053 13.8128 1.73282 13.8128C1.42459 13.8128 1.12897 13.799 0.833344 13.7612C2.49824 14.8349 4.47136 15.4479 6.59918 15.4479C13.5154 15.4479 17.2967 9.71873 17.2967 4.75269C17.2967 4.58654 17.2909 4.42613 17.2829 4.26685C18.0289 3.73748 18.6556 3.07633 19.1667 2.3155Z" fill="#818987"/>
</svg>
