<svg width="16" height="16" viewBox="0 0 16 16" fill="none" xmlns="http://www.w3.org/2000/svg">
<g clip-path="url(#clip0_409_1545)">
<path d="M13 11.9998C11.346 11.9998 10 10.6538 10 8.99984C10 7.34584 11.346 5.99984 13 5.99984H14.6667V4.6665C14.6667 3.93117 14.0687 3.33317 13.3333 3.33317H12.6667V1.99984C12.6667 1.2645 12.0687 0.666504 11.3333 0.666504H2C1.01133 0.666504 0.194 1.38917 0.034 2.3325C0.0193333 2.38717 0 2.4405 0 2.49984V12.6665C0 13.7692 0.897333 14.6665 2 14.6665H13.3333C14.0687 14.6665 14.6667 14.0685 14.6667 13.3332V11.9998H13ZM1.33333 2.6665C1.33333 2.29917 1.632 1.99984 2 1.99984H11.3333V3.33317H2C1.632 3.33317 1.33333 3.03384 1.33333 2.6665Z" fill="white"/>
<path d="M15.5 7H13C11.8973 7 11 7.89733 11 9C11 10.1027 11.8973 11 13 11H15.5C15.776 11 16 10.776 16 10.5V7.5C16 7.224 15.776 7 15.5 7ZM13 9.66667C12.632 9.66667 12.3333 9.368 12.3333 9C12.3333 8.632 12.632 8.33333 13 8.33333C13.368 8.33333 13.6667 8.632 13.6667 9C13.6667 9.368 13.368 9.66667 13 9.66667Z" fill="white"/>
</g>
<defs>
<clipPath id="clip0_409_1545">
<rect width="16" height="16" fill="white"/>
</clipPath>
</defs>
</svg>
