<svg width="29" height="29" viewBox="0 0 29 29" fill="none" xmlns="http://www.w3.org/2000/svg">
<path d="M24.9118 0.000488281H3.55882C1.59613 0.000488281 0 1.59662 0 3.55931V24.9123C0 26.8749 1.59613 28.4711 3.55882 28.4711H24.9118C26.8745 28.4711 28.4706 26.8749 28.4706 24.9123V3.55931C28.4706 1.59662 26.8745 0.000488281 24.9118 0.000488281Z" fill="#F9F9F9"/>
<path fill-rule="evenodd" clip-rule="evenodd" d="M18 12.6159H15.6667V10.7697C15.6667 10.2602 16.0848 10.3082 16.6 10.3082H17.5333V8.00049H15.6667C14.9241 8.00049 14.2119 8.29225 13.6868 8.81158C13.1617 9.33091 12.8667 10.0353 12.8667 10.7697V12.6159H11V14.9236H12.8667V20.0005H15.6667V14.9236H17.0667L18 12.6159Z" fill="#646464"/>
</svg>
