<svg width="29" height="29" viewBox="0 0 29 29" fill="none" xmlns="http://www.w3.org/2000/svg">
<path d="M22.6095 0.000488281H6.91965C3.39035 0.000488281 0.529297 2.86155 0.529297 6.39084V22.0807C0.529297 25.61 3.39035 28.4711 6.91965 28.4711H22.6095C26.1388 28.4711 28.9999 25.61 28.9999 22.0807V6.39084C28.9999 2.86155 26.1388 0.000488281 22.6095 0.000488281Z" fill="#F9F9F9"/>
<path d="M11.4396 12.3156H9.16144V18.987H11.4396V12.3156Z" fill="#646464"/>
<path d="M11.0566 9.20212C10.8395 9.07065 10.5843 9.00049 10.3233 9.00049C10.1491 9.00049 9.97669 9.03173 9.81588 9.09243C9.65508 9.15312 9.50908 9.24207 9.38628 9.35416C9.26349 9.46625 9.16632 9.59927 9.10037 9.74556C9.03441 9.89185 9.00097 10.0485 9.00197 10.2066C9.00348 10.4435 9.08224 10.6747 9.22834 10.871C9.37443 11.0673 9.58132 11.2199 9.82288 11.3096C10.0644 11.3993 10.3299 11.4221 10.5857 11.375C10.8415 11.328 11.0762 11.2132 11.2602 11.0452C11.4443 10.8773 11.5694 10.6636 11.6197 10.4311C11.6701 10.1987 11.6435 9.95793 11.5433 9.7392C11.4431 9.52048 11.2737 9.33359 11.0566 9.20212Z" fill="#646464"/>
<path d="M15.0964 12.3152H12.9018L12.8942 19.0005H15.1723V15.6992C15.1723 14.8308 15.3546 13.99 16.5392 13.99C17.7238 13.99 17.7238 14.9893 17.7238 15.7612V18.9867H20.002V15.327C20.002 13.5282 19.5387 12.1498 17.2606 12.1498C16.8264 12.1344 16.3958 12.2263 16.0146 12.4156C15.6334 12.605 15.3161 12.8847 15.0964 13.225V12.3152Z" fill="#646464"/>
</svg>
