<svg width="216" height="26" viewBox="0 0 216 26" fill="none" xmlns="http://www.w3.org/2000/svg">
<path d="M17.61 3.76V8.47H11.88V25H6V8.47H0.33V3.76H17.61ZM34.2197 16.27C34.2197 16.69 34.1697 17.15 34.0697 17.65H22.9397C23.0397 19.55 23.8697 20.5 25.4297 20.5C26.0097 20.5 26.4897 20.36 26.8697 20.08C27.2497 19.8 27.5097 19.43 27.6497 18.97H33.8897C33.6697 20.15 33.1797 21.22 32.4197 22.18C31.6597 23.12 30.6997 23.86 29.5397 24.4C28.3797 24.94 27.1097 25.21 25.7297 25.21C24.0497 25.21 22.5597 24.87 21.2597 24.19C19.9797 23.49 18.9797 22.49 18.2597 21.19C17.5397 19.87 17.1797 18.33 17.1797 16.57C17.1797 14.81 17.5397 13.28 18.2597 11.98C18.9797 10.68 19.9897 9.69 21.2897 9.01C22.5897 8.31 24.0697 7.96 25.7297 7.96C27.4097 7.96 28.8897 8.3 30.1697 8.98C31.4497 9.66 32.4397 10.63 33.1397 11.89C33.8597 13.15 34.2197 14.61 34.2197 16.27ZM28.2197 15.19C28.2397 14.33 28.0097 13.68 27.5297 13.24C27.0497 12.8 26.4497 12.58 25.7297 12.58C24.9497 12.58 24.3097 12.8 23.8097 13.24C23.3297 13.68 23.0497 14.33 22.9697 15.19H28.2197ZM46.3446 8.02C48.2846 8.02 49.8046 8.67 50.9046 9.97C52.0046 11.25 52.5546 13 52.5546 15.22V25H46.7046V15.97C46.7046 14.99 46.4446 14.23 45.9246 13.69C45.4246 13.13 44.7446 12.85 43.8846 12.85C43.0046 12.85 42.3046 13.14 41.7846 13.72C41.2646 14.28 41.0046 15.06 41.0046 16.06V25H35.0946V8.17H41.0046V10.99C41.4846 10.09 42.1846 9.37 43.1046 8.83C44.0246 8.29 45.1046 8.02 46.3446 8.02ZM60.4303 7.96C61.6103 7.96 62.6303 8.22 63.4903 8.74C64.3503 9.24 64.9903 9.94 65.4103 10.84V2.8H71.3203V25H65.4103V22.33C64.9903 23.23 64.3503 23.94 63.4903 24.46C62.6303 24.96 61.6103 25.21 60.4303 25.21C59.0903 25.21 57.8803 24.87 56.8003 24.19C55.7203 23.49 54.8703 22.49 54.2503 21.19C53.6303 19.87 53.3203 18.33 53.3203 16.57C53.3203 14.81 53.6303 13.28 54.2503 11.98C54.8703 10.68 55.7203 9.69 56.8003 9.01C57.8803 8.31 59.0903 7.96 60.4303 7.96ZM62.3803 13.12C61.4603 13.12 60.7103 13.43 60.1303 14.05C59.5703 14.65 59.2903 15.49 59.2903 16.57C59.2903 17.67 59.5703 18.53 60.1303 19.15C60.7103 19.75 61.4603 20.05 62.3803 20.05C63.2603 20.05 63.9903 19.74 64.5703 19.12C65.1503 18.5 65.4403 17.65 65.4403 16.57C65.4403 15.51 65.1503 14.67 64.5703 14.05C63.9903 13.43 63.2603 13.12 62.3803 13.12ZM89.2216 16.27C89.2216 16.69 89.1716 17.15 89.0716 17.65H77.9416C78.0416 19.55 78.8716 20.5 80.4316 20.5C81.0116 20.5 81.4916 20.36 81.8716 20.08C82.2516 19.8 82.5116 19.43 82.6516 18.97H88.8916C88.6716 20.15 88.1816 21.22 87.4216 22.18C86.6616 23.12 85.7016 23.86 84.5416 24.4C83.3816 24.94 82.1116 25.21 80.7316 25.21C79.0516 25.21 77.5616 24.87 76.2616 24.19C74.9816 23.49 73.9816 22.49 73.2616 21.19C72.5416 19.87 72.1816 18.33 72.1816 16.57C72.1816 14.81 72.5416 13.28 73.2616 11.98C73.9816 10.68 74.9916 9.69 76.2916 9.01C77.5916 8.31 79.0716 7.96 80.7316 7.96C82.4116 7.96 83.8916 8.3 85.1716 8.98C86.4516 9.66 87.4416 10.63 88.1416 11.89C88.8616 13.15 89.2216 14.61 89.2216 16.27ZM83.2216 15.19C83.2416 14.33 83.0116 13.68 82.5316 13.24C82.0516 12.8 81.4516 12.58 80.7316 12.58C79.9516 12.58 79.3116 12.8 78.8116 13.24C78.3316 13.68 78.0516 14.33 77.9716 15.19H83.2216ZM96.0066 11.32C96.6666 10.32 97.4966 9.52 98.4966 8.92C99.4966 8.32 100.557 8.02 101.677 8.02V14.32H99.9666C98.6466 14.32 97.6566 14.58 96.9966 15.1C96.3366 15.6 96.0066 16.48 96.0066 17.74V25H90.0966V8.17H96.0066V11.32ZM117.637 6.43C117.497 6.41 117.287 6.4 117.007 6.4C116.307 6.4 115.797 6.54 115.477 6.82C115.157 7.08 114.967 7.53 114.907 8.17H117.637V13.09H114.877V25H108.967V13.09H107.047V8.17H108.967C108.967 6.01 109.607 4.34 110.887 3.16C112.167 1.96 114.007 1.36 116.407 1.36C116.667 1.36 117.077 1.38 117.637 1.42V6.43ZM117.665 3.52C117.665 2.64 117.985 1.92 118.625 1.36C119.265 0.779999 120.105 0.489999 121.145 0.489999C122.185 0.489999 123.015 0.779999 123.635 1.36C124.255 1.92 124.565 2.64 124.565 3.52C124.565 4.36 124.245 5.06 123.605 5.62C122.985 6.18 122.165 6.46 121.145 6.46C120.105 6.46 119.265 6.18 118.625 5.62C117.985 5.06 117.665 4.36 117.665 3.52ZM124.055 8.17V25H118.145V8.17H124.055ZM137.065 8.02C139.005 8.02 140.525 8.67 141.625 9.97C142.725 11.25 143.275 13 143.275 15.22V25H137.425V15.97C137.425 14.99 137.165 14.23 136.645 13.69C136.145 13.13 135.465 12.85 134.605 12.85C133.725 12.85 133.025 13.14 132.505 13.72C131.985 14.28 131.725 15.06 131.725 16.06V25H125.815V8.17H131.725V10.99C132.205 10.09 132.905 9.37 133.825 8.83C134.745 8.29 135.825 8.02 137.065 8.02ZM151.151 7.96C152.331 7.96 153.351 8.22 154.211 8.74C155.091 9.24 155.741 9.94 156.161 10.84V8.17H162.041V25H156.161V22.33C155.741 23.23 155.091 23.94 154.211 24.46C153.351 24.96 152.331 25.21 151.151 25.21C149.811 25.21 148.601 24.87 147.521 24.19C146.441 23.49 145.591 22.49 144.971 21.19C144.351 19.87 144.041 18.33 144.041 16.57C144.041 14.81 144.351 13.28 144.971 11.98C145.591 10.68 146.441 9.69 147.521 9.01C148.601 8.31 149.811 7.96 151.151 7.96ZM153.101 13.12C152.181 13.12 151.431 13.43 150.851 14.05C150.291 14.65 150.011 15.49 150.011 16.57C150.011 17.67 150.291 18.53 150.851 19.15C151.431 19.75 152.181 20.05 153.101 20.05C153.981 20.05 154.711 19.74 155.291 19.12C155.871 18.5 156.161 17.65 156.161 16.57C156.161 15.51 155.871 14.67 155.291 14.05C154.711 13.43 153.981 13.12 153.101 13.12ZM175.022 8.02C176.962 8.02 178.482 8.67 179.582 9.97C180.682 11.25 181.232 13 181.232 15.22V25H175.382V15.97C175.382 14.99 175.122 14.23 174.602 13.69C174.102 13.13 173.422 12.85 172.562 12.85C171.682 12.85 170.982 13.14 170.462 13.72C169.942 14.28 169.682 15.06 169.682 16.06V25H163.772V8.17H169.682V10.99C170.162 10.09 170.862 9.37 171.782 8.83C172.702 8.29 173.782 8.02 175.022 8.02ZM190.548 7.96C192.728 7.96 194.558 8.57 196.038 9.79C197.518 10.99 198.448 12.66 198.828 14.8H192.588C192.448 14.22 192.188 13.78 191.808 13.48C191.448 13.16 190.978 13 190.398 13C189.678 13 189.088 13.31 188.628 13.93C188.188 14.53 187.968 15.41 187.968 16.57C187.968 17.75 188.188 18.64 188.628 19.24C189.088 19.84 189.678 20.14 190.398 20.14C190.978 20.14 191.448 19.99 191.808 19.69C192.188 19.37 192.448 18.92 192.588 18.34H198.828C198.448 20.48 197.518 22.16 196.038 23.38C194.558 24.6 192.728 25.21 190.548 25.21C188.868 25.21 187.378 24.87 186.078 24.19C184.798 23.49 183.798 22.49 183.078 21.19C182.358 19.87 181.998 18.33 181.998 16.57C181.998 14.81 182.358 13.28 183.078 11.98C183.798 10.68 184.808 9.69 186.108 9.01C187.408 8.31 188.888 7.96 190.548 7.96ZM215.878 16.27C215.878 16.69 215.828 17.15 215.728 17.65H204.598C204.698 19.55 205.528 20.5 207.088 20.5C207.668 20.5 208.148 20.36 208.528 20.08C208.908 19.8 209.168 19.43 209.308 18.97H215.548C215.328 20.15 214.838 21.22 214.078 22.18C213.318 23.12 212.358 23.86 211.198 24.4C210.038 24.94 208.768 25.21 207.388 25.21C205.708 25.21 204.218 24.87 202.918 24.19C201.638 23.49 200.638 22.49 199.918 21.19C199.198 19.87 198.838 18.33 198.838 16.57C198.838 14.81 199.198 13.28 199.918 11.98C200.638 10.68 201.648 9.69 202.948 9.01C204.248 8.31 205.728 7.96 207.388 7.96C209.068 7.96 210.548 8.3 211.828 8.98C213.108 9.66 214.098 10.63 214.798 11.89C215.518 13.15 215.878 14.61 215.878 16.27ZM209.878 15.19C209.898 14.33 209.668 13.68 209.188 13.24C208.708 12.8 208.108 12.58 207.388 12.58C206.608 12.58 205.968 12.8 205.468 13.24C204.988 13.68 204.708 14.33 204.628 15.19H209.878Z" fill="white"/>
<path d="M107.322 19.24V25H101.352V19.24H107.322Z" fill="url(#paint0_linear_104_2075)"/>
<defs>
<linearGradient id="paint0_linear_104_2075" x1="0" y1="14.5" x2="217" y2="14.5" gradientUnits="userSpaceOnUse">
<stop stop-color="#396AFC"/>
<stop offset="1" stop-color="#2948FF"/>
</linearGradient>
</defs>
</svg>
