<?xml version="1.0" encoding="utf-8"?>
<svg viewBox="1.851 199.14 500.378 84.555" xmlns="http://www.w3.org/2000/svg">
  <linearGradient id="SVGID_1_" gradientUnits="userSpaceOnUse" x1="152.1051" y1="781.9686" x2="382.5315" y2="781.9686" gradientTransform="matrix(0.416234, 0, 0, 0.416234, -60.816599, -72.722254)">
    <stop offset="0" style="stop-color:#1CD6D0"/>
    <stop offset="1" style="stop-color:#00E6AF"/>
  </linearGradient>
  <g transform="matrix(0.416234, 0, 0, 0.416234, -60.816608, -72.72226)" style="">
    <path class="st0" d="M620.6,728.8h-41.5v108.8h-31.5V728.8h-41.7v-27.7h114.8V728.8z" style="fill: rgb(255, 255, 255);"/>
    <path class="st0" d="M664.1,839.5c-8.6,0-16.2-1.4-22.9-4.1c-6.7-2.7-12.3-6.4-17-11.1c-4.7-4.7-8.2-10.1-10.7-16.3 c-2.4-6.1-3.7-12.6-3.7-19.3c0-9.6,2.1-18.3,6.4-26.1c4.3-7.9,10.5-14.2,18.6-19.1c8.1-4.8,17.8-7.3,29.2-7.3 c11.4,0,21.1,2.4,29.1,7.2c8,4.8,14.1,11.1,18.4,18.8c4.2,7.8,6.3,16.2,6.3,25.3c0,1.8-0.1,3.5-0.3,5.2s-0.4,3.2-0.5,4.4h-74.6 c0.4,4.4,1.6,8,3.7,11c2.1,3,4.8,5.3,8.2,6.8c3.3,1.6,6.9,2.3,10.6,2.3c4.6,0,8.9-1.1,13-3.3c4-2.2,6.8-5.1,8.4-8.8l26.1,7.3 c-2.6,5.3-6.2,9.9-10.9,13.9c-4.7,4-10.2,7.2-16.5,9.5C678.8,838.4,671.8,839.5,664.1,839.5z M641.8,778.4h43.8 c-0.5-4-1.7-7.5-3.7-10.5c-1.9-3-4.5-5.3-7.7-7c-3.2-1.7-6.7-2.5-10.6-2.5c-4,0-7.5,0.8-10.7,2.5c-3.1,1.7-5.7,4-7.6,7 C643.5,770.8,642.3,774.3,641.8,778.4z" style="fill: rgb(255, 255, 255);"/>
    <path class="st0" d="M829.2,837.6h-30.8V782c0-6.5-1.2-11.3-3.7-14.2c-2.5-3-5.8-4.4-9.9-4.4c-2.8,0-5.7,0.7-8.7,2.2 c-2.9,1.5-5.6,3.5-8,6.1c-2.4,2.6-4.2,5.6-5.5,8.9v57h-30.8v-99.8h27.7v17c2.6-3.9,5.8-7.3,9.6-10c3.8-2.8,8.3-4.9,13.3-6.3 c5-1.5,10.4-2.2,16.3-2.2c6.5,0,11.8,1.2,15.9,3.5s7.1,5.4,9.2,9.2c2.1,3.8,3.5,7.9,4.2,12.2c0.7,4.4,1.1,8.6,1.1,12.8V837.6z" style="fill: rgb(255, 255, 255);"/>
    <path class="st0" d="M843.8,787.8c0-9.7,1.9-18.5,5.8-26.2s9.1-13.9,15.8-18.5c6.7-4.5,14.4-6.8,23.1-6.8c7,0,13.5,1.7,19.2,5.1 c5.8,3.4,10.1,7.9,13.1,13.4v-57.5h30.8v106.1c0,3.1,0.5,5.2,1.5,6.4c1,1.2,2.7,2,5,2.2v25.6c-5.4,1-9.7,1.5-13.1,1.5 c-5.3,0-9.5-1.2-12.8-3.5c-3.3-2.3-5.3-5.5-6.1-9.6l-0.6-5.2c-3.6,6.3-8.5,11-14.6,14s-12.6,4.6-19.4,4.6c-6.9,0-13.3-1.3-19.1-3.9 c-5.8-2.6-10.9-6.2-15.2-10.9c-4.3-4.7-7.6-10.2-9.9-16.5C845,801.9,843.8,795.1,843.8,787.8z M920.9,799.9v-20.5 c-1.3-3.4-3.1-6.3-5.5-8.8c-2.4-2.5-5.1-4.5-8.1-6c-3-1.5-6.1-2.2-9.1-2.2c-3.3,0-6.4,0.7-9.1,2.1c-2.8,1.4-5.2,3.3-7.2,5.7 c-2.1,2.4-3.6,5.2-4.7,8.3c-1.1,3.1-1.6,6.4-1.6,9.9c0,3.6,0.6,6.9,1.8,10c1.2,3,2.9,5.7,5.1,8c2.2,2.3,4.7,4.1,7.7,5.3 c2.9,1.2,6.2,1.9,9.6,1.9c2.2,0,4.3-0.3,6.3-1c2-0.7,4-1.6,5.9-2.7c1.9-1.1,3.6-2.5,5.1-4.3S919.9,801.9,920.9,799.9z" style="fill: rgb(255, 255, 255);"/>
    <path class="st0" d="M1023.6,839.5c-8.6,0-16.2-1.4-22.9-4.1c-6.7-2.7-12.3-6.4-17-11.1c-4.7-4.7-8.2-10.1-10.7-16.3 c-2.4-6.1-3.7-12.6-3.7-19.3c0-9.6,2.1-18.3,6.4-26.1c4.3-7.9,10.5-14.2,18.6-19.1c8.1-4.8,17.8-7.3,29.2-7.3 c11.4,0,21.1,2.4,29.1,7.2c8,4.8,14.1,11.1,18.4,18.8c4.2,7.8,6.3,16.2,6.3,25.3c0,1.8-0.1,3.5-0.3,5.2c-0.2,1.7-0.4,3.2-0.5,4.4 H1002c0.4,4.4,1.6,8,3.7,11c2.1,3,4.8,5.3,8.2,6.8c3.3,1.6,6.9,2.3,10.6,2.3c4.6,0,8.9-1.1,13-3.3c4-2.2,6.8-5.1,8.4-8.8l26.1,7.3 c-2.6,5.3-6.2,9.9-10.9,13.9c-4.7,4-10.2,7.2-16.5,9.5S1031.3,839.5,1023.6,839.5z M1001.3,778.4h43.8c-0.5-4-1.7-7.5-3.7-10.5 c-1.9-3-4.5-5.3-7.7-7c-3.2-1.7-6.7-2.5-10.6-2.5c-4,0-7.5,0.8-10.7,2.5c-3.1,1.7-5.7,4-7.6,7 C1003,770.8,1001.8,774.3,1001.3,778.4z" style="fill: rgb(255, 255, 255);"/>
    <path class="st0" d="M1155.4,763c-7.4,0-14.2,1.2-20.2,3.6c-6,2.4-10.4,5.9-13.1,10.5v60.6h-30.8v-99.8h28.3V757 c3.5-6.8,7.9-12.1,13.5-16c5.5-3.8,11.3-5.8,17.3-6c1.4,0,2.5,0,3.2,0c0.7,0,1.3,0.1,1.8,0.2V763z" style="fill: rgb(255, 255, 255);"/>
    <path class="st0" d="M1260.4,768.2h-12.9v-23.3h12.9v-8.3c0-6,1-11.5,3.1-16.5c2-5,5-9.4,8.7-13.1c3.8-3.7,8.3-6.6,13.6-8.7 c5.3-2,11.3-3.1,18-3.1c4.9,0,9.5,0.5,14,1.6c4.5,1.1,8.9,2.7,13.3,4.7c4.4,2.1,8.7,4.6,13.1,7.5l-11.9,23.3 c-3.7-3.5-7.9-6.2-12.6-8.2c-4.7-2-9.3-3-13.9-3c-3.1,0-5.7,0.6-8,1.8c-2.2,1.2-3.9,2.9-5,5.1c-1.1,2.2-1.6,4.6-1.6,7.3v9.4h55.8 v92.7h-30.8v-69.4h-25v69.4h-30.8V768.2z" style="fill: rgb(255, 255, 255);"/>
  </g>
  <rect x="429.299" y="259.682" class="st1" width="15.401" height="16.067" style="fill: rgb(28, 214, 208);"/>
  <path class="st2" d="M 97.227 224.344 C 81.66 220.723 64.636 224.885 52.441 236.997 C 51.733 237.664 51.192 238.454 50.526 239.162 C 49.86 238.371 49.111 237.622 48.403 236.873 C 36.332 224.677 19.35 220.348 3.741 223.845 C 0.12 239.412 4.282 256.436 16.395 268.632 C 22.971 275.25 30.963 279.454 39.412 281.451 C 39.412 281.535 39.454 281.618 39.454 281.701 C 55.021 285.322 72.045 281.16 84.241 269.047 C 96.395 256.894 100.724 239.911 97.227 224.344 Z" style="fill: url(#SVGID_1_);"/>
  <path class="st3" d="M 66.717 280.036 C 66.177 265.426 60.765 250.942 50.568 239.204 C 40.203 250.816 34.668 265.176 33.918 279.745 C 35.708 280.411 37.539 280.952 39.371 281.41 C 39.371 281.493 39.412 281.576 39.412 281.659 C 48.445 283.741 57.935 283.199 66.717 280.036 Z" style="fill: rgb(20, 153, 146);"/>
  <path class="st1" d="M 66.593 205.697 C 66.551 204.989 66.468 204.24 66.384 203.533 C 64.72 202.95 62.972 202.284 61.265 201.867 C 61.265 201.784 61.265 201.951 61.265 201.867 C 52.399 199.786 43.034 200.203 34.376 203.199 C 34.251 204.073 34.168 204.947 34.085 205.863 C 34.127 206.571 34.21 207.32 34.293 208.028 C 35.958 208.611 37.706 209.277 39.412 209.692 C 39.412 209.776 39.412 209.609 39.412 209.692 C 48.278 211.774 57.643 211.358 66.301 208.361 C 66.426 207.445 66.51 206.571 66.593 205.697 Z" style="fill: rgb(28, 214, 208);"/>
</svg>