<svg width="196" height="32" viewBox="0 0 196 32" fill="none" xmlns="http://www.w3.org/2000/svg">
<path d="M76.6363 11.9171H69.8701V29.0558H64.7343V11.9171H57.9355V7.55371H76.6526V11.9171H76.6363Z" fill="white"/>
<path d="M83.7291 29.3553C82.3269 29.3553 81.0878 29.1348 79.9954 28.7094C78.9031 28.2841 77.9901 27.7013 77.2238 26.9609C76.4575 26.2205 75.8868 25.3699 75.4792 24.3933C75.0879 23.4324 74.876 22.4085 74.876 21.353C74.876 19.8408 75.2184 18.4703 75.9194 17.2416C76.6205 15.9972 77.6314 15.0048 78.952 14.2329C80.2726 13.4768 81.8541 13.083 83.7128 13.083C85.5714 13.083 87.1529 13.4611 88.4572 14.2172C89.7616 14.9733 90.7561 15.9657 91.4572 17.1786C92.1419 18.4073 92.4843 19.7305 92.4843 21.164C92.4843 21.4476 92.468 21.7154 92.4354 21.9831C92.4028 22.2509 92.3702 22.4872 92.3539 22.6762H80.1911C80.2563 23.3694 80.452 23.9364 80.7943 24.409C81.1367 24.8816 81.5769 25.2439 82.1313 25.4802C82.6693 25.7322 83.2563 25.8425 83.8595 25.8425C84.6095 25.8425 85.3106 25.6692 85.979 25.3227C86.6312 24.9761 87.0877 24.5193 87.3486 23.9364L91.6039 25.0864C91.18 25.9213 90.5931 26.6459 89.8268 27.276C89.0605 27.9061 88.1638 28.4101 87.1366 28.7724C86.1258 29.182 84.9845 29.3553 83.7291 29.3553ZM80.0933 19.7305H87.2344C87.1529 19.1004 86.9573 18.5491 86.6312 18.0765C86.3214 17.604 85.8975 17.2417 85.3758 16.9739C84.854 16.7061 84.2834 16.5801 83.6475 16.5801C82.9954 16.5801 82.4247 16.7061 81.903 16.9739C81.3976 17.2417 80.9737 17.604 80.6639 18.0765C80.3704 18.5334 80.1748 19.0847 80.0933 19.7305Z" fill="white"/>
<path d="M110.647 29.0559H105.625V20.2975C105.625 19.2736 105.429 18.5175 105.022 18.0607C104.614 17.5881 104.076 17.3676 103.408 17.3676C102.951 17.3676 102.478 17.4778 101.989 17.7141C101.516 17.9504 101.076 18.2654 100.685 18.675C100.293 19.0846 100 19.5571 99.788 20.077V29.0559H94.7664V13.3349H99.2826V16.0128C99.7065 15.3985 100.228 14.8629 100.848 14.4376C101.467 13.9965 102.201 13.6657 103.016 13.4452C103.831 13.2089 104.712 13.0986 105.674 13.0986C106.734 13.0986 107.598 13.2877 108.266 13.65C108.935 14.0123 109.424 14.5006 109.766 15.0992C110.108 15.6978 110.337 16.3436 110.451 17.021C110.565 17.7141 110.63 18.3757 110.63 19.0373V29.0559H110.647Z" fill="white"/>
<path d="M113.026 21.211C113.026 19.6831 113.336 18.2968 113.972 17.0839C114.608 15.871 115.456 14.8943 116.548 14.1697C117.64 13.4608 118.896 13.0985 120.314 13.0985C121.456 13.0985 122.515 13.3663 123.445 13.9019C124.39 14.4375 125.091 15.1464 125.58 16.0127V6.95508H130.602V23.6684C130.602 24.1568 130.684 24.4876 130.847 24.6766C131.01 24.8656 131.287 24.9916 131.662 25.0231V29.0558C130.781 29.2133 130.08 29.2921 129.526 29.2921C128.662 29.2921 127.977 29.103 127.439 28.7407C126.901 28.3784 126.575 27.8743 126.445 27.2285L126.347 26.4094C125.76 27.4018 124.961 28.1421 123.966 28.6147C122.972 29.0873 121.912 29.3393 120.803 29.3393C119.678 29.3393 118.635 29.1345 117.689 28.725C116.744 28.3154 115.912 27.7483 115.211 27.0079C114.51 26.2676 113.972 25.4012 113.597 24.4088C113.222 23.4321 113.026 22.361 113.026 21.211ZM125.597 23.1171V19.8878C125.385 19.3523 125.091 18.8954 124.7 18.5016C124.309 18.1078 123.869 17.7928 123.379 17.5565C122.89 17.3202 122.385 17.2099 121.896 17.2099C121.358 17.2099 120.852 17.3202 120.412 17.5407C119.956 17.7613 119.564 18.0606 119.238 18.4386C118.896 18.8167 118.651 19.2577 118.472 19.7461C118.293 20.2344 118.211 20.7542 118.211 21.3056C118.211 21.8727 118.309 22.3925 118.505 22.8808C118.7 23.3534 118.977 23.7787 119.336 24.141C119.695 24.5033 120.102 24.7869 120.591 24.9759C121.064 25.1649 121.602 25.2752 122.157 25.2752C122.515 25.2752 122.858 25.2279 123.184 25.1177C123.51 25.0074 123.836 24.8656 124.146 24.6923C124.456 24.5191 124.733 24.2985 124.977 24.015C125.222 23.7314 125.434 23.4321 125.597 23.1171Z" fill="white"/>
<path d="M142.342 29.3553C140.94 29.3553 139.701 29.1348 138.609 28.7094C137.516 28.2841 136.603 27.7013 135.837 26.9609C135.071 26.2205 134.5 25.3699 134.093 24.3933C133.701 23.4324 133.489 22.4085 133.489 21.353C133.489 19.8408 133.832 18.4703 134.533 17.2416C135.234 15.9972 136.245 15.0048 137.565 14.2329C138.886 13.4768 140.467 13.083 142.326 13.083C144.185 13.083 145.766 13.4611 147.071 14.2172C148.375 14.9733 149.369 15.9657 150.07 17.1786C150.755 18.4073 151.098 19.7305 151.098 21.164C151.098 21.4476 151.081 21.7154 151.049 21.9831C151.016 22.2509 150.984 22.4872 150.967 22.6762H138.821C138.886 23.3694 139.082 23.9364 139.424 24.409C139.766 24.8816 140.207 25.2439 140.761 25.4802C141.299 25.7322 141.886 25.8425 142.489 25.8425C143.239 25.8425 143.94 25.6692 144.609 25.3227C145.261 24.9761 145.717 24.5193 145.978 23.9364L150.234 25.0864C149.81 25.9213 149.223 26.6459 148.456 27.276C147.69 27.9061 146.793 28.4101 145.766 28.7724C144.739 29.1348 143.598 29.3553 142.342 29.3553ZM138.707 19.7305H145.848C145.766 19.1004 145.571 18.5491 145.244 18.0765C144.935 17.604 144.511 17.2417 143.989 16.9739C143.467 16.7061 142.897 16.5801 142.261 16.5801C141.609 16.5801 141.038 16.7061 140.516 16.9739C140.011 17.2417 139.587 17.604 139.277 18.0765C138.984 18.5334 138.788 19.0847 138.707 19.7305Z" fill="white"/>
<path d="M163.831 17.3045C162.624 17.3045 161.516 17.4935 160.537 17.8716C159.559 18.2496 158.842 18.801 158.402 19.5256V29.0716H153.38V13.3506H157.994V16.3593C158.565 15.2882 159.282 14.4533 160.195 13.8389C161.092 13.2404 162.037 12.9253 163.016 12.8938C163.244 12.8938 163.423 12.8938 163.537 12.8938C163.651 12.8938 163.749 12.9096 163.831 12.9253V17.3045Z" fill="white"/>
<path d="M180.949 18.1236H178.846V14.4532H180.949V13.1458C180.949 12.2006 181.112 11.3342 181.454 10.5466C181.78 9.759 182.27 9.0659 182.873 8.48306C183.492 7.90021 184.226 7.44339 185.09 7.11259C185.954 6.79754 186.933 6.62427 188.025 6.62427C188.824 6.62427 189.574 6.70303 190.307 6.8763C191.041 7.04958 191.758 7.30162 192.476 7.61667C193.193 7.94747 193.894 8.34128 194.612 8.7981L192.672 12.4684C192.068 11.9171 191.384 11.4918 190.617 11.1767C189.851 10.8617 189.101 10.7041 188.351 10.7041C187.846 10.7041 187.422 10.7987 187.047 10.9877C186.688 11.1767 186.411 11.4445 186.231 11.7911C186.052 12.1376 185.971 12.5157 185.971 12.941V14.4217H195.068V29.0243H190.047V18.0921H185.971V29.0243H180.949V18.1236V18.1236Z" fill="white"/>
<path d="M173.465 22.9121H167.433V28.9927H173.465V22.9121Z" fill="#14F195"/>
<path d="M37.359 9.53845C31.2614 8.16808 24.593 9.74319 19.8162 14.327C19.5388 14.5794 19.3269 14.8784 19.0661 15.1464C18.8052 14.847 18.5118 14.5635 18.2345 14.2801C13.5062 9.66448 6.85429 8.02616 0.740182 9.34961C-0.678178 15.241 0.952094 21.6837 5.6968 26.2993C8.27265 28.8039 11.4031 30.3949 14.7127 31.1507C14.7127 31.1825 14.7291 31.2139 14.7291 31.2453C20.8268 32.6157 27.4951 31.0406 32.2723 26.4564C37.0331 21.8571 38.7288 15.4298 37.359 9.53845Z" fill="#14F195"/>
<path d="M25.408 30.6153C25.1965 25.0861 23.0766 19.6046 19.0824 15.1624C15.0224 19.5569 12.8543 24.9915 12.5605 30.5052C13.2617 30.7572 13.9789 30.962 14.6965 31.1353C14.6965 31.1667 14.7126 31.1981 14.7126 31.2295C18.2508 32.0175 21.9681 31.8123 25.408 30.6153Z" fill="#14B572"/>
<path d="M25.3595 2.48158C25.343 2.21364 25.3105 1.93018 25.2776 1.66261C24.6258 1.44197 23.9411 1.18992 23.2725 1.03211C23.2725 1.0007 23.2725 1.0639 23.2725 1.03211C19.7996 0.244551 16.1313 0.402366 12.74 1.53621C12.691 1.86697 12.6585 2.19774 12.626 2.5444C12.6424 2.81235 12.6749 3.09581 12.7075 3.36375C13.3596 3.58439 14.0443 3.83644 14.7126 3.99349C14.7126 4.02528 14.7126 3.96208 14.7126 3.99349C18.1854 4.78143 21.8537 4.62399 25.2451 3.48977C25.2941 3.14311 25.327 2.81235 25.3595 2.48158Z" fill="#14F195"/>
</svg>
