<svg width="20" height="20" viewBox="0 0 20 20" fill="none" xmlns="http://www.w3.org/2000/svg">
<path fill-rule="evenodd" clip-rule="evenodd" d="M18.4375 10.0005C18.4375 12.2383 17.5486 14.3844 15.9662 15.9667C14.3839 17.549 12.2378 18.438 10 18.438C7.76224 18.438 5.61613 17.549 4.03379 15.9667C2.45145 14.3844 1.5625 12.2383 1.5625 10.0005C1.5625 7.76272 2.45145 5.61661 4.03379 4.03428C5.61613 2.45194 7.76224 1.56299 10 1.56299C12.2378 1.56299 14.3839 2.45194 15.9662 4.03428C17.5486 5.61661 18.4375 7.76272 18.4375 10.0005ZM20 10.0005C20 12.6527 18.9464 15.1962 17.0711 17.0716C15.1957 18.9469 12.6522 20.0005 10 20.0005C7.34784 20.0005 4.8043 18.9469 2.92893 17.0716C1.05357 15.1962 0 12.6527 0 10.0005C0 7.34832 1.05357 4.80478 2.92893 2.92942C4.8043 1.05406 7.34784 0.000488281 10 0.000488281C12.6522 0.000488281 15.1957 1.05406 17.0711 2.92942C18.9464 4.80478 20 7.34832 20 10.0005ZM9.3375 6.91299L11.4875 9.06299H5V10.938H11.4875L9.3375 13.088L10.6625 14.413L14.4125 10.663C14.5881 10.4872 14.6867 10.2489 14.6867 10.0005C14.6867 9.75205 14.5881 9.51377 14.4125 9.33799L10.6625 5.58799L9.3375 6.91299Z" fill="white"/>
</svg>
