<svg width="167" height="12" viewBox="0 0 167 12" fill="none" xmlns="http://www.w3.org/2000/svg">
<path d="M6.224 11.192C9.28 11.192 11.744 8.712 11.744 5.672C11.744 2.616 9.28 0.151999 6.224 0.151999C3.184 0.151999 0.704 2.616 0.704 5.672C0.704 8.712 3.184 11.192 6.224 11.192ZM6.224 0.648C8.992 0.648 11.248 2.904 11.248 5.672C11.248 8.44 8.992 10.696 6.224 10.696C3.456 10.696 1.2 8.44 1.2 5.672C1.2 2.904 3.456 0.648 6.224 0.648ZM8.608 8.024L8.192 7.624C7.776 8.184 7.024 8.552 6.256 8.552C4.816 8.552 3.52 7.336 3.52 5.656C3.52 3.928 4.816 2.776 6.256 2.776C7.008 2.776 7.776 3.128 8.192 3.688L8.592 3.304C8.032 2.648 7.248 2.248 6.256 2.248C4.416 2.248 2.928 3.704 2.928 5.656C2.928 7.608 4.416 9.08 6.256 9.08C7.248 9.08 8.032 8.696 8.608 8.024ZM17.4421 11H24.7701V9.816H19.5381C22.5141 7.464 24.7221 5.48 24.7221 3.304C24.7221 1.176 22.9141 0.167999 21.1381 0.167999C19.6341 0.167999 18.2421 0.775999 17.4261 1.848L18.2421 2.696C18.8661 1.896 19.8581 1.352 21.1381 1.352C22.2421 1.352 23.3621 1.944 23.3621 3.304C23.3621 5.144 21.2821 6.92 17.4421 9.944V11ZM26.8004 5.672C26.8004 8.264 27.9524 11.192 30.8804 11.192C33.7924 11.192 34.9604 8.264 34.9604 5.672C34.9604 3.064 33.7924 0.167999 30.8804 0.167999C27.9524 0.167999 26.8004 3.064 26.8004 5.672ZM33.6004 5.672C33.6004 7.8 32.9124 10.008 30.8804 10.008C28.8484 10.008 28.1604 7.8 28.1604 5.672C28.1604 3.544 28.8484 1.352 30.8804 1.352C32.9124 1.352 33.6004 3.544 33.6004 5.672ZM36.6453 11H43.9733V9.816H38.7413C41.7173 7.464 43.9253 5.48 43.9253 3.304C43.9253 1.176 42.1173 0.167999 40.3413 0.167999C38.8373 0.167999 37.4453 0.775999 36.6293 1.848L37.4453 2.696C38.0693 1.896 39.0613 1.352 40.3413 1.352C41.4453 1.352 42.5653 1.944 42.5653 3.304C42.5653 5.144 40.4852 6.92 36.6453 9.944V11ZM46.0515 11H53.3795V9.816H48.1475C51.1235 7.464 53.3315 5.48 53.3315 3.304C53.3315 1.176 51.5235 0.167999 49.7475 0.167999C48.2435 0.167999 46.8515 0.775999 46.0355 1.848L46.8515 2.696C47.4755 1.896 48.4675 1.352 49.7475 1.352C50.8515 1.352 51.9715 1.944 51.9715 3.304C51.9715 5.144 49.8915 6.92 46.0515 9.944V11ZM62.6068 11H63.9348V1.512H67.3268V0.327999H59.2308V1.512H62.6068V11ZM66.752 7.128C66.752 9.544 68.4 11.192 70.688 11.192C71.952 11.192 72.992 10.776 73.76 10.008L73.184 9.224C72.576 9.848 71.68 10.2 70.8 10.2C69.136 10.2 68.112 8.984 68.016 7.528H74.272V7.224C74.272 4.904 72.896 3.08 70.56 3.08C68.352 3.08 66.752 4.888 66.752 7.128ZM70.544 4.072C72.304 4.072 73.072 5.496 73.088 6.648H68.016C68.08 5.464 68.896 4.072 70.544 4.072ZM81.4316 11H82.6316V5.576C82.6316 3.896 81.7836 3.08 80.1676 3.08C79.0156 3.08 77.9596 3.752 77.4156 4.392V3.272H76.2156V11H77.4156V5.352C77.8636 4.728 78.7596 4.152 79.7036 4.152C80.7436 4.152 81.4316 4.584 81.4316 5.944V11ZM90.6281 11H91.8281V0.327999H90.6281V4.44C90.0041 3.592 89.0601 3.08 88.0201 3.08C85.9881 3.08 84.5801 4.68 84.5801 7.144C84.5801 9.656 86.0041 11.192 88.0201 11.192C89.1081 11.192 90.0521 10.632 90.6281 9.848V11ZM90.6281 8.904C90.1961 9.576 89.2681 10.12 88.3081 10.12C86.7561 10.12 85.8281 8.856 85.8281 7.144C85.8281 5.432 86.7561 4.152 88.3081 4.152C89.2681 4.152 90.1961 4.728 90.6281 5.4V8.904ZM93.7833 7.128C93.7833 9.544 95.4313 11.192 97.7193 11.192C98.9833 11.192 100.023 10.776 100.791 10.008L100.215 9.224C99.6073 9.848 98.7113 10.2 97.8313 10.2C96.1673 10.2 95.1432 8.984 95.0473 7.528H101.303V7.224C101.303 4.904 99.9273 3.08 97.5913 3.08C95.3832 3.08 93.7833 4.888 93.7833 7.128ZM97.5753 4.072C99.3353 4.072 100.103 5.496 100.119 6.648H95.0473C95.1113 5.464 95.9273 4.072 97.5753 4.072ZM103.247 11H104.447V5.528C104.799 4.904 105.807 4.296 106.543 4.296C106.735 4.296 106.879 4.312 107.023 4.344V3.112C105.967 3.112 105.071 3.704 104.447 4.52V3.272H103.247V11ZM112.701 11H114.029V6.136H119.581V4.952H114.029V1.512H119.693V0.327999H112.701V11ZM122.042 1.976C122.49 1.976 122.858 1.608 122.858 1.16C122.858 0.712 122.49 0.36 122.042 0.36C121.61 0.36 121.242 0.712 121.242 1.16C121.242 1.608 121.61 1.976 122.042 1.976ZM121.45 11H122.65V3.272H121.45V11ZM130.26 11H131.46V5.576C131.46 3.896 130.612 3.08 128.996 3.08C127.844 3.08 126.788 3.752 126.244 4.392V3.272H125.044V11H126.244V5.352C126.692 4.728 127.588 4.152 128.532 4.152C129.572 4.152 130.26 4.584 130.26 5.944V11ZM138.688 11H139.888V5.688C139.888 3.816 138.528 3.08 136.896 3.08C135.632 3.08 134.64 3.496 133.808 4.36L134.368 5.192C135.056 4.456 135.808 4.12 136.736 4.12C137.856 4.12 138.688 4.712 138.688 5.752V7.144C138.064 6.424 137.184 6.088 136.128 6.088C134.816 6.088 133.424 6.904 133.424 8.632C133.424 10.312 134.816 11.192 136.128 11.192C137.168 11.192 138.048 10.824 138.688 10.12V11ZM138.688 9.368C138.224 10.008 137.408 10.328 136.56 10.328C135.44 10.328 134.656 9.624 134.656 8.648C134.656 7.656 135.44 6.952 136.56 6.952C137.408 6.952 138.224 7.272 138.688 7.912V9.368ZM147.51 11H148.71V5.576C148.71 3.896 147.862 3.08 146.246 3.08C145.094 3.08 144.038 3.752 143.494 4.392V3.272H142.294V11H143.494V5.352C143.942 4.728 144.838 4.152 145.782 4.152C146.822 4.152 147.51 4.584 147.51 5.944V11ZM150.658 7.128C150.658 9.432 152.21 11.192 154.514 11.192C155.922 11.192 156.754 10.616 157.346 9.848L156.546 9.112C156.034 9.8 155.378 10.12 154.578 10.12C152.93 10.12 151.906 8.84 151.906 7.128C151.906 5.416 152.93 4.152 154.578 4.152C155.378 4.152 156.034 4.456 156.546 5.16L157.346 4.424C156.754 3.656 155.922 3.08 154.514 3.08C152.21 3.08 150.658 4.84 150.658 7.128ZM158.58 7.128C158.58 9.544 160.228 11.192 162.516 11.192C163.78 11.192 164.82 10.776 165.588 10.008L165.012 9.224C164.404 9.848 163.508 10.2 162.628 10.2C160.964 10.2 159.94 8.984 159.844 7.528H166.1V7.224C166.1 4.904 164.724 3.08 162.388 3.08C160.18 3.08 158.58 4.888 158.58 7.128ZM162.372 4.072C164.132 4.072 164.9 5.496 164.916 6.648H159.844C159.908 5.464 160.724 4.072 162.372 4.072Z" fill="#818987"/>
</svg>
