<?xml version="1.0" encoding="UTF-8" standalone="no"?>
<svg
   xmlns:dc="http://purl.org/dc/elements/1.1/"
   xmlns:cc="http://creativecommons.org/ns#"
   xmlns:rdf="http://www.w3.org/1999/02/22-rdf-syntax-ns#"
   xmlns:svg="http://www.w3.org/2000/svg"
   xmlns="http://www.w3.org/2000/svg"
   xmlns:sodipodi="http://sodipodi.sourceforge.net/DTD/sodipodi-0.dtd"
   xmlns:inkscape="http://www.inkscape.org/namespaces/inkscape"
   inkscape:version="1.0 (4035a4f, 2020-05-01)"
   height="30"
   width="134.74356"
   sodipodi:docname="stakeholder-aurora.svg"
   id="svg2593"
   version="1.1">
  <metadata
     id="metadata2599">
    <rdf:RDF>
      <cc:Work
         rdf:about="">
        <dc:format>image/svg+xml</dc:format>
        <dc:type
           rdf:resource="http://purl.org/dc/dcmitype/StillImage" />
      </cc:Work>
    </rdf:RDF>
  </metadata>
  <defs
     id="defs2597" />
  <sodipodi:namedview
     inkscape:current-layer="svg2593"
     inkscape:window-maximized="0"
     inkscape:window-y="25"
     inkscape:window-x="0"
     inkscape:cy="57.624946"
     inkscape:cx="40.243845"
     inkscape:zoom="4.2198918"
     showgrid="false"
     id="namedview2595"
     inkscape:window-height="739"
     inkscape:window-width="1434"
     inkscape:pageshadow="2"
     inkscape:pageopacity="0"
     guidetolerance="10"
     gridtolerance="10"
     objecttolerance="10"
     borderopacity="1"
     bordercolor="#666666"
     pagecolor="#ffffff" />
  <path
     style="fill:#ffffff;fill-opacity:1"
     id="path2589"
     fill="currentColor"
     d="m 96.766559,7.471 c 1.506,0.385 2.147,0.74 3.296001,1.79 2.012,1.878 2.758,4.614 2.027,7.454 -0.835,3.283 -3.787001,5.457 -7.306001,5.398 a 18.454,18.454 0 0 1 -1.49,-0.089 c -0.731,-0.118 -1.999,-0.65 -2.774,-1.168 -3.802,-2.514 -4.31,-8.253 -1.014,-11.477 a 7.308,7.308 0 0 1 3.683,-1.982 c 1.372,-0.28 2.221,-0.266 3.578,0.074 z m -31.341,0 1.223,0.044 1.222,0.045 0.045,4.141 c 0.06,6.05 -0.194,7.395 -1.685,8.874 -1.088,1.065 -2.058,1.435 -4.026,1.494 -0.82,0.03 -1.7,-0.015 -1.968,-0.074 -2.207,-0.562 -3.713,-2.278 -4.085,-4.63 -0.075,-0.517 -0.12,-2.928 -0.105,-5.368 l 0.045,-4.437 h 2.386 l 0.074,4.954 c 0.075,4.925 0.075,4.955 0.448,5.695 1.133,2.248 4.741,2.262 5.934,0.03 l 0.402,-0.77 z m -18.37,0.015 0.299,0.784 c 0.164,0.414 0.835,2.16 1.506,3.875 0.67,1.715 1.401,3.608 1.64,4.215 0.223,0.606 0.79,2.056 1.252,3.21 0.462,1.153 0.835,2.144 0.835,2.188 0,0.045 -0.566,0.074 -1.252,0.074 -1.223,0 -1.253,-0.015 -1.402,-0.4 -0.09,-0.236 -0.984,-2.543 -1.968,-5.146 -2.296,-6.034 -2.281,-5.99 -2.475,-5.99 -0.09,0 -0.224,0.222 -0.313,0.488 -0.09,0.251 -0.716,1.908 -1.387,3.653 -0.67,1.745 -1.58,4.112 -2.013,5.25 l -0.775,2.071 -1.208,0.045 c -1.029,0.03 -1.223,0 -1.223,-0.193 0,-0.266 5.204,-13.666 5.413,-13.932 0.09,-0.133 0.611,-0.192 1.61,-0.192 z m 29.046,0 c 3.861,0 4.726,0.133 5.83,0.932 0.387,0.28 0.85,0.813 1.118,1.272 0.388,0.695 0.477,1.005 0.522,2.07 0.044,1.035 0,1.42 -0.254,2.115 -0.402,1.02 -1.312,1.908 -2.385,2.293 -0.418,0.147 -0.76,0.295 -0.76,0.34 0,0.044 0.879,1.183 1.938,2.544 1.073,1.36 1.938,2.529 1.938,2.617 0,0.222 -2.117,0.207 -2.58,0 -0.208,-0.088 -1.237,-1.286 -2.28,-2.662 l -1.924,-2.484 -1.074,-0.015 h -1.088 v 5.324 h -2.386 l 0.03,-3.653 0.045,-3.668 3.429,-0.074 c 2.475,-0.059 3.534,-0.133 3.817,-0.28 1.088,-0.548 1.536,-2.264 0.85,-3.255 -0.686,-1.02 -1.044,-1.109 -4.25,-1.198 l -2.877,-0.074 -0.462,-0.458 a 1.788,1.788 0 0 1 -0.537,-1.065 l -0.09,-0.621 z m 33.340001,0.03 c 3.548,0.044 3.801,0.059 4.502,0.384 1.58,0.725 2.43,2.011 2.535,3.816 0.119,2.277 -0.85,3.845 -2.788,4.481 -0.314,0.104 -0.567,0.252 -0.567,0.326 0,0.073 0.85,1.212 1.879,2.529 1.028,1.316 1.908,2.484 1.953,2.603 0.12,0.295 -2.475,0.192 -2.863,-0.119 -0.149,-0.118 -1.103,-1.301 -2.132,-2.618 l -1.849,-2.41 h -1.014 c -0.79,0 -1.029,0.059 -1.103,0.236 -0.045,0.133 -0.09,1.331 -0.09,2.663 v 2.425 h -2.385 v -3.46 c 0,-1.909 0.044,-3.565 0.09,-3.698 0.074,-0.207 0.521,-0.237 3.324,-0.237 3.623,0 4.13,-0.118 4.801,-1.05 0.477,-0.665 0.477,-1.952 0.015,-2.603 -0.611,-0.843 -1.148,-0.99 -4.205,-1.08 -2.251,-0.059 -2.847,-0.118 -3.16,-0.325 -0.478,-0.31 -0.91,-1.213 -0.79,-1.612 0.104,-0.296 0.178,-0.296 3.846,-0.252 z m 19.815,0.044 0.85,2.144 a 400.5,400.5 0 0 1 1.327,3.328 c 0.253,0.65 1.103,2.84 1.878,4.851 0.79,2.012 1.432,3.727 1.432,3.801 0,0.089 -0.537,0.148 -1.238,0.148 h -1.222 l -1.104,-2.914 c -2.34,-6.167 -3.28,-8.548 -3.414,-8.592 -0.134,-0.045 -0.462,0.724 -2.028,4.777 -0.268,0.74 -0.954,2.484 -1.491,3.89 -0.537,1.39 -0.984,2.617 -0.984,2.691 0,0.089 -0.522,0.148 -1.267,0.148 -0.731,0 -1.268,-0.06 -1.268,-0.148 0,-0.103 3.862,-10.101 5.204,-13.459 l 0.253,-0.665 z M 94.768559,9.556 c -3.533,0 -5.844,3.299 -4.756,6.819 0.283,0.931 0.447,1.198 1.252,1.996 0.76,0.755 1.104,0.976 1.894,1.228 a 5.17,5.17 0 0 0 3.951,-0.281 c 2.803,-1.36 3.698001,-4.97 1.924,-7.647 -0.925,-1.39 -2.386,-2.115 -4.265,-2.115 z" />
  <path
     style="fill:#70d44b;fill-opacity:1"
     id="path2591"
     class="text-primary"
     fill="currentColor"
     d="m 15.000559,2.292 a 3.317,3.317 0 0 1 2.981,1.841 l 9.375,18.75 a 3.333,3.333 0 0 1 -2.981,4.825 H 5.6255591 a 3.333,3.333 0 0 1 -2.98,-4.825 L 12.019559,4.133 a 3.317,3.317 0 0 1 2.981,-1.841 m 0,-2.291999972218827 A 5.625,5.625 0 0 0 9.9695591,3.108 L 0.59455908,21.858 A 5.625,5.625 0 0 0 5.6255591,30 H 24.375559 a 5.625,5.625 0 0 0 5.03,-8.142 l -9.374,-18.75 A 5.625,5.625 0 0 0 15.000559,2.7781173e-8 Z" />
</svg>
