<?xml version="1.0" encoding="UTF-8"?> <svg xmlns="http://www.w3.org/2000/svg" width="187" height="52" viewBox="0 0 187 52" fill="none"><path d="M82.02 29.09V24.59H102.54V29.09H82.02ZM75.3 32L88.17 12.8H96.51L109.5 32H101.25L90.12 14.81H94.5901L83.55 32H75.3Z" fill="white"></path><path d="M140.495 26.12L137.705 27.71V12.8H145.205V32H137.705L115.115 18.92L117.905 17.3V32H110.405V12.8H117.905L140.495 26.12Z" fill="white"></path><path d="M165.389 32.6C162.789 32.6 160.399 32.44 158.219 32.12C156.059 31.82 154.179 31.3 152.579 30.56C150.999 29.8 149.769 28.77 148.889 27.47C148.029 26.17 147.599 24.53 147.599 22.55C147.599 20.57 148.039 18.92 148.919 17.6C149.799 16.26 151.059 15.2 152.699 14.42C154.359 13.62 156.329 13.05 158.609 12.71C160.909 12.37 163.469 12.2 166.289 12.2C169.989 12.2 173.089 12.54 175.589 13.22C178.109 13.9 180.029 14.87 181.349 16.13C182.669 17.37 183.379 18.85 183.479 20.57H175.679C175.439 20.13 174.999 19.71 174.359 19.31C173.719 18.89 172.759 18.55 171.479 18.29C170.199 18.03 168.469 17.9 166.289 17.9C163.729 17.9 161.649 18.06 160.049 18.38C158.449 18.68 157.279 19.17 156.539 19.85C155.799 20.53 155.429 21.43 155.429 22.55C155.429 23.53 155.809 24.34 156.569 24.98C157.329 25.62 158.549 26.1 160.229 26.42C161.909 26.74 164.129 26.9 166.889 26.9C168.829 26.9 170.509 26.82 171.929 26.66C173.369 26.48 174.669 26.21 175.829 25.85C177.009 25.49 178.179 25.04 179.339 24.5L180.059 25.37C178.819 27.71 176.979 29.5 174.539 30.74C172.099 31.98 169.049 32.6 165.389 32.6ZM178.019 32C178.019 31.4 178.099 30.72 178.259 29.96C178.419 29.2 178.619 28.41 178.859 27.59C179.119 26.75 179.369 25.96 179.609 25.22H167.909V22.07H183.899V32H178.019Z" fill="white"></path><mask id="mask0_117_413" style="mask-type:alpha" maskUnits="userSpaceOnUse" x="0" y="0" width="68" height="52"><g clip-path="url(#clip0_117_413)"><path d="M30.4073 37.19L30.7323 36.6242L29.1958 35.0793L30.4073 37.19Z" fill="url(#paint0_linear_117_413)"></path><path d="M47.7187 8.50564L45.6778 7.26416H44.0203C44.0203 7.26416 45.6574 7.8314 49.143 8.43675C54.6419 9.23557 60.1933 9.26489 65.717 9.64744C60.3974 9.29567 55.0749 9.20772 49.7903 8.74015C48.452 8.60384 47.7187 8.50564 47.7187 8.50564Z" fill="url(#paint1_linear_117_413)"></path><path d="M32.4292 33.6693L37.7182 38.987L38.7139 37.2516L33.4263 31.9339L32.4292 33.6693Z" fill="url(#paint2_linear_117_413)"></path><path d="M42.0026 7.26416L34.7776 0H33.0137L40.2386 7.26416H42.0026Z" fill="url(#paint3_linear_117_413)"></path><path d="M31.0442 36.0819L36.3332 41.3996L37.3682 39.5967L32.0792 34.2791L31.0442 36.0819Z" fill="url(#paint4_linear_117_413)"></path><path d="M65.7129 9.65328C60.4895 10.266 55.1408 10.178 49.9772 11.204C48.945 11.5177 48.5995 11.8636 48.9305 12.1963L51.575 14.8552L52.1814 13.7984C52.1814 13.7984 50.8591 12.4689 49.5748 11.1293C52.7456 10.5884 56.0476 10.6485 59.1163 9.76614C58.9107 9.56094 58.6191 9.59026 58.3874 9.56094C54.7924 9.12122 51.2557 9.03181 47.7205 8.50269C52.9803 9.14907 58.2984 9.17839 63.5757 9.5287C65.0219 9.60491 65.7129 9.65328 65.7129 9.65328Z" fill="url(#paint5_linear_117_413)"></path><path d="M45.6823 7.26416L38.4573 0H36.7998L44.0248 7.26416H45.6823Z" fill="url(#paint6_linear_117_413)"></path><path d="M23.6065 7.26416L16.3815 0H14.0854L21.3104 7.26416H23.6065Z" fill="url(#paint7_linear_117_413)"></path><path d="M57.5693 4.41771L53.174 0H51.9436L57.1189 5.20334L57.5693 4.41771Z" fill="url(#paint8_linear_117_413)"></path><path d="M27.2859 7.26416L20.061 0H17.8713L25.0963 7.26416H27.2859Z" fill="url(#paint9_linear_117_413)"></path><path d="M34.6437 7.26416L27.4202 0H25.4434L32.6669 7.26416H34.6437Z" fill="url(#paint10_linear_117_413)"></path><path d="M30.9642 7.26416L23.7392 0H21.6575L28.881 7.26416H30.9642Z" fill="url(#paint11_linear_117_413)"></path><path d="M38.3231 7.26416L31.0982 0H29.2278L36.4527 7.26416H38.3231Z" fill="url(#paint12_linear_117_413)"></path><path d="M28.0178 24.233C28.3735 24.4572 28.7467 24.4279 29.133 24.4865C33.0794 25.1915 36.9659 25.1329 40.6163 26.6749L43.2608 29.3337L44.1005 27.868C44.1005 27.868 42.7782 26.54 38.1453 25.2047C34.7748 24.6683 34.9556 24.0204 35.9732 23.4986C36.9907 22.9768 38.813 22.5518 38.813 22.5518C38.813 22.5518 37.1277 22.9915 34.839 23.4195C33.5269 23.6349 31.8183 23.8372 30.4407 23.9867C29.0631 24.1362 28.0178 24.233 28.0178 24.233Z" fill="url(#paint13_linear_117_413)"></path><path d="M66.5684 9.31325C62.2999 8.94389 57.8595 9.26635 53.8009 7.69215C52.7804 6.8347 51.4771 5.6929 50.3444 4.55402C48.0804 2.27628 45.8149 0 45.8149 0H44.3979L49.3764 5.00547C50.6214 6.2572 51.8663 7.50894 53.0778 8.4558C54.3811 8.61556 55.6421 8.7636 57.1816 8.88672C58.721 9.00984 60.3654 9.11831 61.8378 9.20919C64.7812 9.3924 66.3104 9.52871 66.5918 9.63131C67.156 9.83358 65.6967 9.94351 65.6967 9.94351L66.5684 9.31325Z" fill="url(#paint14_linear_117_413)"></path><path d="M19.927 7.26416L12.702 0H10.2996L17.5245 7.26416H19.927Z" fill="url(#paint15_linear_117_413)"></path><path d="M36.5854 26.43L41.8744 31.7462L42.7491 30.216L40.109 27.5572C39.4486 26.8917 37.6846 26.2116 35.6816 25.5315C32.1726 25.1329 28.6374 24.8676 25.1299 24.5451C27.4099 24.8383 29.6593 25.1622 31.9263 25.4978C34.925 25.9786 36.5854 26.43 36.5854 26.43Z" fill="url(#paint16_linear_117_413)"></path><path d="M53.518 11.4708C53.518 11.4708 53.362 11.2949 54.3927 10.9593C58.8857 10.266 63.4735 10.1487 68.0029 9.73685C67.4198 9.59028 66.8046 9.59028 66.1909 9.53165C60.8144 9.03184 55.403 9.38508 50.2511 7.84313C49.3831 7.20992 48.5692 6.50489 47.818 5.73541L42.1135 0H40.5901L42.5246 1.94356L46.7727 6.21617C48.5366 7.73466 50.875 8.14653 53.1244 8.56134C56.7194 9.20772 60.1963 9.06115 63.6747 9.64891C61.1614 10.266 58.4732 10.0608 55.8578 10.3129C52.187 11.6643 52.9597 12.4426 52.9597 12.4426L53.518 11.4708Z" fill="url(#paint17_linear_117_413)"></path><path d="M35.2004 28.8426L40.4894 34.1603L41.4078 32.5612L36.1189 27.2435L35.2004 28.8426Z" fill="url(#paint18_linear_117_413)"></path><path d="M18.8787 19.2861C18.4676 19.3447 18.004 19.2568 17.6206 19.4913C24.6925 20.2842 31.7936 19.9911 38.9223 20.6082C40.472 20.7254 42.0785 20.9599 43.3876 21.8482C43.8249 22.4594 42.8978 22.8405 42.459 22.9577C39.4194 23.8987 36.323 24.0453 33.2251 24.3985C37.7254 24.016 42.2257 23.8694 46.7041 23.226C46.7041 23.226 45.4723 21.8526 42.1586 20.51C36.4105 20.0805 30.5952 20.315 24.8674 19.5807C28.4027 19.0516 31.9976 19.1703 35.5226 18.7423C39.953 18.2161 41.4997 17.8629 41.4997 17.8629C41.4997 17.8629 39.8218 18.2132 36.702 18.5708C31.4655 19.0208 26.2057 19.0501 20.9342 19.2289L18.8787 19.2861Z" fill="url(#paint19_linear_117_413)"></path><path d="M43.5144 14.3642L46.1588 17.023C46.2051 17.0677 46.2399 17.123 46.2601 17.1843C46.2803 17.2455 46.2854 17.3107 46.275 17.3744C46.2645 17.438 46.2387 17.4982 46.2 17.5496C46.1612 17.601 46.1105 17.6421 46.0524 17.6694C43.9779 18.669 41.641 18.6397 39.3902 18.8156C33.6041 19.2861 27.8734 19.1982 22.1208 19.7566C22.8221 19.6672 23.5233 19.61 24.2245 19.5499C32.6113 19.1102 40.9982 19.2275 49.35 18.4975C49.35 18.4975 48.1648 17.1593 46.844 15.8299L44.1995 13.1711L43.5144 14.3642Z" fill="url(#paint20_linear_117_413)"></path><path d="M39.3568 21.6063L40.1834 22.4374C38.8203 22.7188 38.278 23.0237 37.2677 23.3608C35.4474 23.8186 33.5994 24.1564 31.7353 24.3722C35.4761 25.0185 39.3626 24.9584 43.0407 26.0284C43.6012 26.2774 44.1379 26.5771 44.6443 26.924L42.287 25.1856C42.287 25.1856 39.5448 24.9526 38.3276 24.5598C37.1103 24.167 39.0842 23.6144 42.8016 22.8698C42.1412 22.2043 40.5741 21.5433 39.1717 21.0479C35.7079 20.3766 32.142 20.4044 28.636 20.1992C31.0895 20.3766 33.5445 20.5818 36.0126 20.9145L39.3568 21.6063Z" fill="url(#paint21_linear_117_413)"></path><path d="M56.2224 6.76288L49.496 0H48.1562L55.7325 7.61593L56.2224 6.76288Z" fill="url(#paint22_linear_117_413)"></path><path d="M42.128 16.7768L42.9546 17.6078C41.4968 17.8746 40.9136 18.1751 39.3698 18.499C31.7046 19.3154 23.9913 19.1102 16.3057 19.5499C16.8888 19.6085 17.4442 19.6379 18.0288 19.6965C27.4099 20.4015 36.8478 19.5499 46.0568 21.2751C47.0875 21.7617 47.417 22.0944 47.417 22.0944L48.1459 20.8339C48.1459 20.8339 47.4928 20.7577 46.0102 20.6155C40.2722 20.167 34.5736 20.167 28.8167 19.8152C28.2904 19.7859 27.735 19.7859 27.2131 19.6379C27.302 19.4913 27.5046 19.5206 27.6227 19.5206C33.6421 18.9343 39.6031 19.1981 45.5058 18.1751L42.8613 15.5162L42.128 16.7768Z" fill="url(#paint23_linear_117_413)"></path><path d="M44.9009 11.9501L50.1884 17.2678L50.8342 16.1435L48.1897 13.4847C47.4112 12.7177 46.8316 11.7706 46.5016 10.7262L44.9009 11.9501Z" fill="url(#paint24_linear_117_413)"></path><path d="M24.1677 26.326C24.1677 26.326 22.1938 25.9375 20.0129 25.319C17.832 24.7005 17.6644 23.9925 21.0071 23.267C20.5236 22.6398 19.9198 22.1164 19.2315 21.728C18.3422 21.1959 17.0652 20.6375 15.0519 20.0629C11.0254 18.9123 15.5316 17.6474 14.2997 16.4059L9.54722 11.6291C9.70903 11.2495 10.3461 10.8962 11.5619 10.5327C13.1262 10.1971 15.463 9.94643 17.5813 9.71337C19.6995 9.48032 15.9135 9.11682 12.5328 8.77531C9.61719 8.47044 7.64913 8.20807 5.90267 7.95304C4.9857 7.03549 4.43025 6.4873 4.43025 6.4873C4.43025 6.4873 4.67225 6.9065 5.03379 7.53823C6.0703 7.8475 7.01789 8.211 10.7455 8.61115C13.3244 8.8911 15.896 9.15493 18.4968 9.39092C19.5785 9.47886 20.6587 9.50818 21.704 9.77201C17.934 10.2718 14.0183 9.80132 10.3752 11.0648C9.38539 11.4664 8.89848 11.8387 7.68266 12.1626L8.2862 13.2135L9.74402 14.6793L13.3988 18.3553C12.6407 18.4946 11.8812 18.5239 11.1217 18.6118C7.38089 19.0823 3.61096 18.8757 -0.0117188 19.6378C4.83845 20.3707 9.77754 20.2549 14.6583 20.6565C16.0987 21.4773 17.3291 22.304 18.1206 23.1483C15.3697 23.7859 12.9935 24.3209 16.0797 24.9335C19.1659 25.5462 21.0742 26.1559 21.7652 26.7759C22.9227 27.9397 24.0015 29.0258 24.9272 29.9551L28.0105 33.0566L24.1677 26.326Z" fill="url(#paint25_linear_117_413)"></path><path d="M36.0214 41.9419L30.7324 36.6242L30.4073 37.19L29.1944 35.0793L24.6169 30.4755C23.2917 29.1431 21.7858 27.6217 20.2434 26.0783C18.3818 25.6693 16.1615 25.2384 14.5681 24.8397C12.9747 24.4411 12.8989 24.0937 14.0185 23.7228C16.2577 22.9827 16.4181 22.2366 15.695 21.5169C14.2372 21.1212 12.8726 20.7342 9.31119 20.3517C7.2892 18.9358 11.8259 17.6269 10.9148 16.7079L9.45698 15.2421C9.45698 15.2421 10.4585 16.9878 9.91473 18.7188C9.37097 20.4499 13.4645 22.2234 13.4645 22.2234C13.4645 22.2234 14.0608 22.8097 11.7152 23.9456C9.47303 24.2564 10.5708 24.7928 13.5768 25.5081C16.5828 26.2234 18.2418 27.0134 19.0392 27.8225C19.8367 28.6316 20.6793 29.4714 21.5496 30.3465L34.9513 43.8209L36.0214 41.9419Z" fill="url(#paint26_linear_117_413)"></path><path d="M19.1426 17.5741L14.6102 13.0172C13.3157 11.7156 15.8946 10.1707 11.7325 8.76654C10.2557 8.03367 9.23672 7.31107 8.23374 6.60458L1.65896 -0.00585938H0.704102L3.12408 4.20225L4.5819 5.66799C5.17528 6.27616 5.82393 6.82723 6.51935 7.314C7.53982 7.96918 8.73522 8.17585 9.93355 8.32242C17.7941 9.1447 25.5322 9.34843 33.3695 9.58588C26.7072 10.0256 20.0435 9.79108 13.4192 10.4653C11.9614 10.8845 11.4832 11.2773 10.5444 11.6701L14.8304 15.9779C15.5389 16.6903 15.9164 17.3909 15.4747 18.0607C14.7546 18.4667 13.9076 18.5005 13.0606 18.6133C9.40729 19.1424 5.9887 18.9944 2.30624 19.6994C2.18962 19.7287 1.77997 19.8768 1.92576 19.8768C7.0981 20.3766 12.2121 20.2286 17.3189 20.831C18.3947 21.108 19.0245 21.3704 20.4386 21.6166C21.8848 23.116 14.9572 24.2241 14.9572 24.2241C16.1831 23.9551 17.388 23.597 18.5624 23.1527C20.0596 22.4887 21.4328 21.621 20.9372 20.8075C16.45 20.2212 11.7748 20.4616 7.39112 19.5792C10.2543 18.9035 13.2647 18.9622 16.1861 18.6294C17.152 18.2243 18.1389 17.872 19.1426 17.5741V17.5741Z" fill="url(#paint27_linear_117_413)"></path><path d="M34.6742 44.2871L19.7169 29.2487C18.2212 27.7448 16.9136 26.4301 14.7822 25.3366C7.54853 24.4484 9.15359 24.1641 9.15359 24.1641C9.15359 24.1641 9.91457 24.529 12.231 25.1901C14.5475 25.8511 16.0389 26.7027 16.5593 27.6071L18.6367 31.2245L33.5604 46.2306L34.6742 44.2871Z" fill="url(#paint28_linear_117_413)"></path><path d="M33.8157 31.2552L39.1046 36.5729L40.061 34.9064L34.7735 29.5887L33.8157 31.2552Z" fill="url(#paint29_linear_117_413)"></path><path d="M30.4072 51.7183L30.6156 51.3577L29.6331 50.3713L30.4072 51.7183Z" fill="url(#paint30_linear_117_413)"></path><path d="M31.9814 48.9774L24.5349 41.4919L28.9069 49.1049L30.8094 51.0177L31.9814 48.9774Z" fill="url(#paint31_linear_117_413)"></path><path d="M33.3272 46.6322L19.5085 32.7386L23.8077 40.2255L32.1755 48.6388L33.3272 46.6322Z" fill="url(#paint32_linear_117_413)"></path><path d="M16.2473 7.26416L9.02234 0H6.51343L13.7384 7.26416H16.2473Z" fill="url(#paint33_linear_117_413)"></path><path d="M27.1446 9.08753C22.4999 8.59064 17.6498 9.00251 13.2136 7.47522C11.9969 6.52104 10.8338 5.49982 9.72945 4.41624L5.34286 0.00585938H2.72754L6.60679 3.9047C7.71474 5.02013 8.97137 6.27332 10.2236 7.52652C14.6685 8.59651 19.198 8.8618 23.7814 9.42025C24.1327 9.44956 24.5103 9.42025 24.8339 9.59614C24.4534 9.88928 23.9869 9.80134 23.5481 9.85997C20.2461 10.3598 16.9442 10.0959 13.8055 11.1483L17.6848 15.0487L15.9033 11.9325C16.071 11.0311 17.1818 10.8552 17.9443 10.6793C20.4867 10.1502 22.8833 10.0622 25.3543 9.90101C31.2031 9.50526 27.1446 9.08753 27.1446 9.08753Z" fill="url(#paint34_linear_117_413)"></path><path d="M59.4032 1.22535L58.1845 0H56.855L58.9149 2.07254L59.4032 1.22535Z" fill="url(#paint35_linear_117_413)"></path><path d="M58.0357 3.60423L58.5037 2.79075L55.728 0H54.4509L58.0357 3.60423Z" fill="url(#paint36_linear_117_413)"></path><path d="M30.6158 51.3578L30.8097 51.0177L28.9072 49.1049L29.6332 50.3713L30.6158 51.3578Z" fill="url(#paint37_linear_117_413)"></path></g></mask><g mask="url(#mask0_117_413)"><rect y="-3" width="68" height="55" fill="url(#paint38_linear_117_413)"></rect></g><defs><linearGradient id="paint0_linear_117_413" x1="8.86064" y1="53.5695" x2="60.7075" y2="10.8683" gradientUnits="userSpaceOnUse"><stop stop-color="#FFDC54"></stop><stop offset="0.06" stop-color="#FFCF52"></stop><stop offset="0.27" stop-color="#FFA44A"></stop><stop offset="0.47" stop-color="#FF8245"></stop><stop offset="0.67" stop-color="#FF6A40"></stop><stop offset="0.85" stop-color="#FF5C3E"></stop><stop offset="1" stop-color="#FF573D"></stop></linearGradient><linearGradient id="paint1_linear_117_413" x1="41562.3" y1="1407.42" x2="41786.2" y2="-280.369" gradientUnits="userSpaceOnUse"><stop stop-color="#FFDC54"></stop><stop offset="0.06" stop-color="#FFCF52"></stop><stop offset="0.27" stop-color="#FFA44A"></stop><stop offset="0.47" stop-color="#FF8245"></stop><stop offset="0.67" stop-color="#FF6A40"></stop><stop offset="0.85" stop-color="#FF5C3E"></stop><stop offset="1" stop-color="#FF573D"></stop></linearGradient><linearGradient id="paint2_linear_117_413" x1="501.705" y1="2727.27" x2="2929.78" y2="935.729" gradientUnits="userSpaceOnUse"><stop stop-color="#FFDC54"></stop><stop offset="0.06" stop-color="#FFCF52"></stop><stop offset="0.27" stop-color="#FFA44A"></stop><stop offset="0.47" stop-color="#FF8245"></stop><stop offset="0.67" stop-color="#FF6A40"></stop><stop offset="0.85" stop-color="#FF5C3E"></stop><stop offset="1" stop-color="#FF573D"></stop></linearGradient><linearGradient id="paint3_linear_117_413" x1="-206.271" y1="1887.81" x2="2410.43" y2="-793.517" gradientUnits="userSpaceOnUse"><stop stop-color="#FFDC54"></stop><stop offset="0.06" stop-color="#FFCF52"></stop><stop offset="0.27" stop-color="#FFA44A"></stop><stop offset="0.47" stop-color="#FF8245"></stop><stop offset="0.67" stop-color="#FF6A40"></stop><stop offset="0.85" stop-color="#FF5C3E"></stop><stop offset="1" stop-color="#FF573D"></stop></linearGradient><linearGradient id="paint4_linear_117_413" x1="529.44" y1="2791.35" x2="2978.69" y2="990.084" gradientUnits="userSpaceOnUse"><stop stop-color="#FFDC54"></stop><stop offset="0.06" stop-color="#FFCF52"></stop><stop offset="0.27" stop-color="#FFA44A"></stop><stop offset="0.47" stop-color="#FF8245"></stop><stop offset="0.67" stop-color="#FF6A40"></stop><stop offset="0.85" stop-color="#FF5C3E"></stop><stop offset="1" stop-color="#FF573D"></stop></linearGradient><linearGradient id="paint5_linear_117_413" x1="34607.6" y1="3795.97" x2="36259.2" y2="-77.6506" gradientUnits="userSpaceOnUse"><stop stop-color="#FFDC54"></stop><stop offset="0.06" stop-color="#FFCF52"></stop><stop offset="0.27" stop-color="#FFA44A"></stop><stop offset="0.47" stop-color="#FF8245"></stop><stop offset="0.67" stop-color="#FF6A40"></stop><stop offset="0.85" stop-color="#FF5C3E"></stop><stop offset="1" stop-color="#FF573D"></stop></linearGradient><linearGradient id="paint6_linear_117_413" x1="-106.742" y1="1978.9" x2="2510.11" y2="-670.743" gradientUnits="userSpaceOnUse"><stop stop-color="#FFDC54"></stop><stop offset="0.06" stop-color="#FFCF52"></stop><stop offset="0.27" stop-color="#FFA44A"></stop><stop offset="0.47" stop-color="#FF8245"></stop><stop offset="0.67" stop-color="#FF6A40"></stop><stop offset="0.85" stop-color="#FF5C3E"></stop><stop offset="1" stop-color="#FF573D"></stop></linearGradient><linearGradient id="paint7_linear_117_413" x1="-735.028" y1="1430.89" x2="1873.55" y2="-1400.31" gradientUnits="userSpaceOnUse"><stop stop-color="#FFDC54"></stop><stop offset="0.06" stop-color="#FFCF52"></stop><stop offset="0.27" stop-color="#FFA44A"></stop><stop offset="0.47" stop-color="#FF8245"></stop><stop offset="0.67" stop-color="#FF6A40"></stop><stop offset="0.85" stop-color="#FF5C3E"></stop><stop offset="1" stop-color="#FF573D"></stop></linearGradient><linearGradient id="paint8_linear_117_413" x1="150.169" y1="1628.8" x2="2013.46" y2="-39.3711" gradientUnits="userSpaceOnUse"><stop stop-color="#FFDC54"></stop><stop offset="0.06" stop-color="#FFCF52"></stop><stop offset="0.27" stop-color="#FFA44A"></stop><stop offset="0.47" stop-color="#FF8245"></stop><stop offset="0.67" stop-color="#FF6A40"></stop><stop offset="0.85" stop-color="#FF5C3E"></stop><stop offset="1" stop-color="#FF573D"></stop></linearGradient><linearGradient id="paint9_linear_117_413" x1="-624.863" y1="1522.28" x2="1986.05" y2="-1279.7" gradientUnits="userSpaceOnUse"><stop stop-color="#FFDC54"></stop><stop offset="0.06" stop-color="#FFCF52"></stop><stop offset="0.27" stop-color="#FFA44A"></stop><stop offset="0.47" stop-color="#FF8245"></stop><stop offset="0.67" stop-color="#FF6A40"></stop><stop offset="0.85" stop-color="#FF5C3E"></stop><stop offset="1" stop-color="#FF573D"></stop></linearGradient><linearGradient id="paint10_linear_117_413" x1="-410.927" y1="1704.97" x2="2203.44" y2="-1036.93" gradientUnits="userSpaceOnUse"><stop stop-color="#FFDC54"></stop><stop offset="0.06" stop-color="#FFCF52"></stop><stop offset="0.27" stop-color="#FFA44A"></stop><stop offset="0.47" stop-color="#FF8245"></stop><stop offset="0.67" stop-color="#FF6A40"></stop><stop offset="0.85" stop-color="#FF5C3E"></stop><stop offset="1" stop-color="#FF573D"></stop></linearGradient><linearGradient id="paint11_linear_117_413" x1="-516.643" y1="1613.52" x2="2096.07" y2="-1158.24" gradientUnits="userSpaceOnUse"><stop stop-color="#FFDC54"></stop><stop offset="0.06" stop-color="#FFCF52"></stop><stop offset="0.27" stop-color="#FFA44A"></stop><stop offset="0.47" stop-color="#FF8245"></stop><stop offset="0.67" stop-color="#FF6A40"></stop><stop offset="0.85" stop-color="#FF5C3E"></stop><stop offset="1" stop-color="#FF573D"></stop></linearGradient><linearGradient id="paint12_linear_117_413" x1="-307.391" y1="1796.21" x2="2308.18" y2="-915.557" gradientUnits="userSpaceOnUse"><stop stop-color="#FFDC54"></stop><stop offset="0.06" stop-color="#FFCF52"></stop><stop offset="0.27" stop-color="#FFA44A"></stop><stop offset="0.47" stop-color="#FF8245"></stop><stop offset="0.67" stop-color="#FF6A40"></stop><stop offset="0.85" stop-color="#FF5C3E"></stop><stop offset="1" stop-color="#FF573D"></stop></linearGradient><linearGradient id="paint13_linear_117_413" x1="30928.1" y1="4070.42" x2="32904.6" y2="189.476" gradientUnits="userSpaceOnUse"><stop stop-color="#FFDC54"></stop><stop offset="0.06" stop-color="#FFCF52"></stop><stop offset="0.27" stop-color="#FFA44A"></stop><stop offset="0.47" stop-color="#FF8245"></stop><stop offset="0.67" stop-color="#FF6A40"></stop><stop offset="0.85" stop-color="#FF5C3E"></stop><stop offset="1" stop-color="#FF573D"></stop></linearGradient><linearGradient id="paint14_linear_117_413" x1="42536.6" y1="5720.4" x2="45526.4" y2="162.238" gradientUnits="userSpaceOnUse"><stop stop-color="#FFDC54"></stop><stop offset="0.06" stop-color="#FFCF52"></stop><stop offset="0.27" stop-color="#FFA44A"></stop><stop offset="0.47" stop-color="#FF8245"></stop><stop offset="0.67" stop-color="#FF6A40"></stop><stop offset="0.85" stop-color="#FF5C3E"></stop><stop offset="1" stop-color="#FF573D"></stop></linearGradient><linearGradient id="paint15_linear_117_413" x1="-847.409" y1="1339.44" x2="1758.6" y2="-1520.48" gradientUnits="userSpaceOnUse"><stop stop-color="#FFDC54"></stop><stop offset="0.06" stop-color="#FFCF52"></stop><stop offset="0.27" stop-color="#FFA44A"></stop><stop offset="0.47" stop-color="#FF8245"></stop><stop offset="0.67" stop-color="#FF6A40"></stop><stop offset="0.85" stop-color="#FF5C3E"></stop><stop offset="1" stop-color="#FF573D"></stop></linearGradient><linearGradient id="paint16_linear_117_413" x1="33853" y1="4310.44" x2="35912.6" y2="137.731" gradientUnits="userSpaceOnUse"><stop stop-color="#FFDC54"></stop><stop offset="0.06" stop-color="#FFCF52"></stop><stop offset="0.27" stop-color="#FFA44A"></stop><stop offset="0.47" stop-color="#FF8245"></stop><stop offset="0.67" stop-color="#FF6A40"></stop><stop offset="0.85" stop-color="#FF5C3E"></stop><stop offset="1" stop-color="#FF573D"></stop></linearGradient><linearGradient id="paint17_linear_117_413" x1="52123.1" y1="7104.97" x2="55902.5" y2="210.049" gradientUnits="userSpaceOnUse"><stop stop-color="#FFDC54"></stop><stop offset="0.06" stop-color="#FFCF52"></stop><stop offset="0.27" stop-color="#FFA44A"></stop><stop offset="0.47" stop-color="#FF8245"></stop><stop offset="0.67" stop-color="#FF6A40"></stop><stop offset="0.85" stop-color="#FF5C3E"></stop><stop offset="1" stop-color="#FF573D"></stop></linearGradient><linearGradient id="paint18_linear_117_413" x1="446.936" y1="2601.05" x2="2833.25" y2="827.721" gradientUnits="userSpaceOnUse"><stop stop-color="#FFDC54"></stop><stop offset="0.06" stop-color="#FFCF52"></stop><stop offset="0.27" stop-color="#FFA44A"></stop><stop offset="0.47" stop-color="#FF8245"></stop><stop offset="0.67" stop-color="#FF6A40"></stop><stop offset="0.85" stop-color="#FF5C3E"></stop><stop offset="1" stop-color="#FF573D"></stop></linearGradient><linearGradient id="paint19_linear_117_413" x1="55085.8" y1="3698.63" x2="56276.3" y2="-688.158" gradientUnits="userSpaceOnUse"><stop stop-color="#FFDC54"></stop><stop offset="0.06" stop-color="#FFCF52"></stop><stop offset="0.27" stop-color="#FFA44A"></stop><stop offset="0.47" stop-color="#FF8245"></stop><stop offset="0.67" stop-color="#FF6A40"></stop><stop offset="0.85" stop-color="#FF5C3E"></stop><stop offset="1" stop-color="#FF573D"></stop></linearGradient><linearGradient id="paint20_linear_117_413" x1="51647" y1="3741.83" x2="52924.2" y2="-630.929" gradientUnits="userSpaceOnUse"><stop stop-color="#FFDC54"></stop><stop offset="0.06" stop-color="#FFCF52"></stop><stop offset="0.27" stop-color="#FFA44A"></stop><stop offset="0.47" stop-color="#FF8245"></stop><stop offset="0.67" stop-color="#FF6A40"></stop><stop offset="0.85" stop-color="#FF5C3E"></stop><stop offset="1" stop-color="#FF573D"></stop></linearGradient><linearGradient id="paint21_linear_117_413" x1="30657.7" y1="3968.92" x2="32613" y2="114.716" gradientUnits="userSpaceOnUse"><stop stop-color="#FFDC54"></stop><stop offset="0.06" stop-color="#FFCF52"></stop><stop offset="0.27" stop-color="#FFA44A"></stop><stop offset="0.47" stop-color="#FF8245"></stop><stop offset="0.67" stop-color="#FF6A40"></stop><stop offset="0.85" stop-color="#FF5C3E"></stop><stop offset="1" stop-color="#FF573D"></stop></linearGradient><linearGradient id="paint22_linear_117_413" x1="163.098" y1="2355.07" x2="2883.88" y2="-31.057" gradientUnits="userSpaceOnUse"><stop stop-color="#FFDC54"></stop><stop offset="0.06" stop-color="#FFCF52"></stop><stop offset="0.27" stop-color="#FFA44A"></stop><stop offset="0.47" stop-color="#FF8245"></stop><stop offset="0.67" stop-color="#FF6A40"></stop><stop offset="0.85" stop-color="#FF5C3E"></stop><stop offset="1" stop-color="#FF573D"></stop></linearGradient><linearGradient id="paint23_linear_117_413" x1="60220.2" y1="3699.37" x2="61333.6" y2="-763.321" gradientUnits="userSpaceOnUse"><stop stop-color="#FFDC54"></stop><stop offset="0.06" stop-color="#FFCF52"></stop><stop offset="0.27" stop-color="#FFA44A"></stop><stop offset="0.47" stop-color="#FF8245"></stop><stop offset="0.67" stop-color="#FF6A40"></stop><stop offset="0.85" stop-color="#FF5C3E"></stop><stop offset="1" stop-color="#FF573D"></stop></linearGradient><linearGradient id="paint24_linear_117_413" x1="11399.9" y1="3855.2" x2="13663.5" y2="2155.05" gradientUnits="userSpaceOnUse"><stop stop-color="#FFDC54"></stop><stop offset="0.06" stop-color="#FFCF52"></stop><stop offset="0.27" stop-color="#FFA44A"></stop><stop offset="0.47" stop-color="#FF8245"></stop><stop offset="0.67" stop-color="#FF6A40"></stop><stop offset="0.85" stop-color="#FF5C3E"></stop><stop offset="1" stop-color="#FF573D"></stop></linearGradient><linearGradient id="paint25_linear_117_413" x1="51663.4" y1="13372.7" x2="61149.7" y2="5087.74" gradientUnits="userSpaceOnUse"><stop stop-color="#FFDC54"></stop><stop offset="0.06" stop-color="#FFCF52"></stop><stop offset="0.27" stop-color="#FFA44A"></stop><stop offset="0.47" stop-color="#FF8245"></stop><stop offset="0.67" stop-color="#FF6A40"></stop><stop offset="0.85" stop-color="#FF5C3E"></stop><stop offset="1" stop-color="#FF573D"></stop></linearGradient><linearGradient id="paint26_linear_117_413" x1="51565.2" y1="16095.7" x2="61580.5" y2="8192.46" gradientUnits="userSpaceOnUse"><stop stop-color="#FFDC54"></stop><stop offset="0.06" stop-color="#FFCF52"></stop><stop offset="0.27" stop-color="#FFA44A"></stop><stop offset="0.47" stop-color="#FF8245"></stop><stop offset="0.67" stop-color="#FF6A40"></stop><stop offset="0.85" stop-color="#FF5C3E"></stop><stop offset="1" stop-color="#FF573D"></stop></linearGradient><linearGradient id="paint27_linear_117_413" x1="58774.2" y1="10890.2" x2="67452.1" y2="1202.73" gradientUnits="userSpaceOnUse"><stop stop-color="#FFDC54"></stop><stop offset="0.06" stop-color="#FFCF52"></stop><stop offset="0.27" stop-color="#FFA44A"></stop><stop offset="0.47" stop-color="#FF8245"></stop><stop offset="0.67" stop-color="#FF6A40"></stop><stop offset="0.85" stop-color="#FF5C3E"></stop><stop offset="1" stop-color="#FF573D"></stop></linearGradient><linearGradient id="paint28_linear_117_413" x1="49031.9" y1="12881.5" x2="56977.4" y2="5227.16" gradientUnits="userSpaceOnUse"><stop stop-color="#FFDC54"></stop><stop offset="0.06" stop-color="#FFCF52"></stop><stop offset="0.27" stop-color="#FFA44A"></stop><stop offset="0.47" stop-color="#FF8245"></stop><stop offset="0.67" stop-color="#FF6A40"></stop><stop offset="0.85" stop-color="#FF5C3E"></stop><stop offset="1" stop-color="#FF573D"></stop></linearGradient><linearGradient id="paint29_linear_117_413" x1="474.234" y1="2663.48" x2="2880.96" y2="881.365" gradientUnits="userSpaceOnUse"><stop stop-color="#FFDC54"></stop><stop offset="0.06" stop-color="#FFCF52"></stop><stop offset="0.27" stop-color="#FFA44A"></stop><stop offset="0.47" stop-color="#FF8245"></stop><stop offset="0.67" stop-color="#FF6A40"></stop><stop offset="0.85" stop-color="#FF5C3E"></stop><stop offset="1" stop-color="#FF573D"></stop></linearGradient><linearGradient id="paint30_linear_117_413" x1="139.033" y1="624.978" x2="568.884" y2="365.334" gradientUnits="userSpaceOnUse"><stop stop-color="#FFDC54"></stop><stop offset="0.06" stop-color="#FFCF52"></stop><stop offset="0.27" stop-color="#FFA44A"></stop><stop offset="0.47" stop-color="#FF8245"></stop><stop offset="0.67" stop-color="#FF6A40"></stop><stop offset="0.85" stop-color="#FF5C3E"></stop><stop offset="1" stop-color="#FF573D"></stop></linearGradient><linearGradient id="paint31_linear_117_413" x1="685.638" y1="3844.57" x2="3817.43" y2="1817.35" gradientUnits="userSpaceOnUse"><stop stop-color="#FFDC54"></stop><stop offset="0.06" stop-color="#FFCF52"></stop><stop offset="0.27" stop-color="#FFA44A"></stop><stop offset="0.47" stop-color="#FF8245"></stop><stop offset="0.67" stop-color="#FF6A40"></stop><stop offset="0.85" stop-color="#FF5C3E"></stop><stop offset="1" stop-color="#FF573D"></stop></linearGradient><linearGradient id="paint32_linear_117_413" x1="918.137" y1="5924.41" x2="6350.81" y2="2014.78" gradientUnits="userSpaceOnUse"><stop stop-color="#FFDC54"></stop><stop offset="0.06" stop-color="#FFCF52"></stop><stop offset="0.27" stop-color="#FFA44A"></stop><stop offset="0.47" stop-color="#FF8245"></stop><stop offset="0.67" stop-color="#FF6A40"></stop><stop offset="0.85" stop-color="#FF5C3E"></stop><stop offset="1" stop-color="#FF573D"></stop></linearGradient><linearGradient id="paint33_linear_117_413" x1="-962.103" y1="1248.13" x2="1641.16" y2="-1640.38" gradientUnits="userSpaceOnUse"><stop stop-color="#FFDC54"></stop><stop offset="0.06" stop-color="#FFCF52"></stop><stop offset="0.27" stop-color="#FFA44A"></stop><stop offset="0.47" stop-color="#FF8245"></stop><stop offset="0.67" stop-color="#FF6A40"></stop><stop offset="0.85" stop-color="#FF5C3E"></stop><stop offset="1" stop-color="#FF573D"></stop></linearGradient><linearGradient id="paint34_linear_117_413" x1="46203.3" y1="6620.79" x2="51307.1" y2="-624.245" gradientUnits="userSpaceOnUse"><stop stop-color="#FFDC54"></stop><stop offset="0.06" stop-color="#FFCF52"></stop><stop offset="0.27" stop-color="#FFA44A"></stop><stop offset="0.47" stop-color="#FF8245"></stop><stop offset="0.67" stop-color="#FF6A40"></stop><stop offset="0.85" stop-color="#FF5C3E"></stop><stop offset="1" stop-color="#FF573D"></stop></linearGradient><linearGradient id="paint35_linear_117_413" x1="111.796" y1="659.089" x2="858.434" y2="-101.072" gradientUnits="userSpaceOnUse"><stop stop-color="#FFDC54"></stop><stop offset="0.06" stop-color="#FFCF52"></stop><stop offset="0.27" stop-color="#FFA44A"></stop><stop offset="0.47" stop-color="#FF8245"></stop><stop offset="0.67" stop-color="#FF6A40"></stop><stop offset="0.85" stop-color="#FF5C3E"></stop><stop offset="1" stop-color="#FF573D"></stop></linearGradient><linearGradient id="paint36_linear_117_413" x1="133.439" y1="1137.6" x2="1428.95" y2="-68.6668" gradientUnits="userSpaceOnUse"><stop stop-color="#FFDC54"></stop><stop offset="0.06" stop-color="#FFCF52"></stop><stop offset="0.27" stop-color="#FFA44A"></stop><stop offset="0.47" stop-color="#FF8245"></stop><stop offset="0.67" stop-color="#FF6A40"></stop><stop offset="0.85" stop-color="#FF5C3E"></stop><stop offset="1" stop-color="#FF573D"></stop></linearGradient><linearGradient id="paint37_linear_117_413" x1="234.239" y1="1000.66" x2="996.826" y2="467.403" gradientUnits="userSpaceOnUse"><stop stop-color="#FFDC54"></stop><stop offset="0.06" stop-color="#FFCF52"></stop><stop offset="0.27" stop-color="#FFA44A"></stop><stop offset="0.47" stop-color="#FF8245"></stop><stop offset="0.67" stop-color="#FF6A40"></stop><stop offset="0.85" stop-color="#FF5C3E"></stop><stop offset="1" stop-color="#FF573D"></stop></linearGradient><linearGradient id="paint38_linear_117_413" x1="2.03133" y1="33.6958" x2="60.1681" y2="-5.89297" gradientUnits="userSpaceOnUse"><stop stop-color="#02E797"></stop><stop offset="0.744635" stop-color="#00AAC0"></stop></linearGradient><clipPath id="clip0_117_413"><rect width="68" height="51.7183" fill="white"></rect></clipPath></defs></svg> 