<svg width="108" height="109" viewBox="0 0 108 109" fill="none" xmlns="http://www.w3.org/2000/svg">
<path d="M32.2371 32.7462C39.3334 25.3763 43.5744 16.8526 44.9543 7.18873C46.3392 16.8531 50.5955 25.3769 57.717 32.7469C65.3323 40.6279 74.3767 45.3493 84.8348 46.9034C78.4688 47.856 72.531 50.0489 67.026 53.4821C60.0677 57.8215 54.5645 63.5685 50.5213 70.7174C47.6516 75.7915 45.7999 81.1731 44.9659 86.859C43.5983 77.1169 39.3538 68.5311 32.2377 61.1154C24.6419 53.1996 15.6025 48.4611 5.13507 46.9077C15.602 45.3581 24.6412 40.6351 32.2371 32.7462Z" stroke="white"/>
<path d="M64.1359 84C69.2159 82.9836 73.639 80.5171 77.393 76.6058C80.8721 72.981 83.076 68.8459 84 64.2105C84.924 68.8459 87.1279 72.981 90.607 76.6058C94.361 80.5171 98.7841 82.9836 103.864 84C98.7841 85.0164 94.361 87.4829 90.607 91.3942C87.1279 95.019 84.924 99.1541 84 103.79C83.076 99.1541 80.8721 95.019 77.393 91.3942C73.639 87.4829 69.2159 85.0164 64.1359 84Z" stroke="white"/>
</svg>
