<svg width="29" height="29" viewBox="0 0 29 29" fill="none" xmlns="http://www.w3.org/2000/svg">
<path d="M28.4688 24.5168C28.4688 25.5656 28.059 26.5713 27.3297 27.3129C26.6004 28.0545 25.6113 28.4711 24.5799 28.4711H4.35764C3.32624 28.4711 2.33709 28.0545 1.60778 27.3129C0.878471 26.5713 0.46875 25.5656 0.46875 24.5168V3.95474C0.46875 2.906 0.878471 1.90023 1.60778 1.15866C2.33709 0.417095 3.32624 0.000488281 4.35764 0.000488281H24.5799C25.6113 0.000488281 26.6004 0.417095 27.3297 1.15866C28.059 1.90023 28.4688 2.906 28.4688 3.95474V24.5168Z" fill="#F9F9F9"/>
<path d="M19.8768 11.0047C19.4792 11.1899 18.9757 11.3638 18.5245 11.4215C18.9834 11.1354 19.7113 10.5395 19.8768 10.0005C19.4481 10.2653 18.6728 10.5481 18.1671 10.6504C17.7632 10.2004 17.1871 10.0005 16.5488 10.0005C15.3228 10.0005 14.4677 11.0923 14.4677 12.3689V13.3163C12.6647 13.3163 10.9067 11.873 9.81271 10.4742C9.6149 10.8267 9.51105 11.2287 9.51206 11.638C9.51206 12.4996 10.2653 13.3741 10.8616 13.79C10.4979 13.7781 9.80911 13.4863 9.50935 13.3163V13.3433C9.50935 14.4645 10.2581 15.2257 11.2727 15.4379C11.0875 15.4914 10.8616 15.6847 9.99256 15.6847C10.2747 16.6013 11.6933 17.0859 12.6647 17.1058C11.9047 17.7249 10.5497 18.0531 9.50935 18.0531C9.3295 18.0531 9.23214 18.0635 9.05859 18.0422C10.0403 18.6959 11.4115 19.0005 12.6647 19.0005C16.7472 19.0005 18.9753 15.7235 18.9753 12.6673C18.9753 12.5669 18.9721 12.2306 18.9671 12.1321C19.4035 11.809 19.5802 11.4708 19.8768 11.0047" fill="#646464"/>
</svg>
