<svg width="25" height="23" viewBox="0 0 25 23" fill="none" xmlns="http://www.w3.org/2000/svg">
    <path d="M22.9492 0.733887L13.8945 7.46968L15.5785 3.49446L22.9492 0.733887Z" fill="#E17726" stroke="#E17726" stroke-linecap="round" stroke-linejoin="round"/>
    <path d="M2.0249 0.733887L11.0244 7.5249L9.42323 3.49446L2.0249 0.733887Z" fill="#E27625" stroke="#E27625" stroke-linecap="round" stroke-linejoin="round"/>
    <path d="M19.692 16.3311L17.2627 20.0302L22.4526 21.4657L23.9157 16.4139L19.692 16.3311Z" fill="#E27625" stroke="#E27625" stroke-linecap="round" stroke-linejoin="round"/>
    <path d="M1.08545 16.4139L2.54855 21.4657L7.71082 20.0302L5.30912 16.3311L1.08545 16.4139Z" fill="#E27625" stroke="#E27625" stroke-linecap="round" stroke-linejoin="round"/>
    <path d="M7.43501 10.0921L5.99951 12.273L11.1066 12.4938L10.9409 6.97266L7.43501 10.0921Z" fill="#E27625" stroke="#E27625" stroke-linecap="round" stroke-linejoin="round"/>
    <path d="M17.5656 10.0921L14.0045 6.91748L13.894 12.4938L19.0011 12.273L17.5656 10.0921Z" fill="#E27625" stroke="#E27625" stroke-linecap="round" stroke-linejoin="round"/>
    <path d="M7.71045 20.0301L10.8023 18.5394L8.12453 16.4414L7.71045 20.0301Z" fill="#E27625" stroke="#E27625" stroke-linecap="round" stroke-linejoin="round"/>
    <path d="M14.1987 18.5394L17.263 20.0301L16.8489 16.4414L14.1987 18.5394Z" fill="#E27625" stroke="#E27625" stroke-linecap="round" stroke-linejoin="round"/>
    <path d="M17.262 20.0303L14.1978 18.5396L14.4462 20.5272L14.4186 21.3829L17.262 20.0303Z" fill="#D5BFB2" stroke="#D5BFB2" stroke-linecap="round" stroke-linejoin="round"/>
    <path d="M7.71045 20.0303L10.5814 21.3829L10.5538 20.5272L10.8023 18.5396L7.71045 20.0303Z" fill="#D5BFB2" stroke="#D5BFB2" stroke-linecap="round" stroke-linejoin="round"/>
    <path d="M10.6367 15.1165L8.06934 14.3711L9.86371 13.543L10.6367 15.1165Z" fill="#233447" stroke="#233447" stroke-linecap="round" stroke-linejoin="round"/>
    <path d="M14.3638 15.1165L15.1091 13.543L16.9311 14.3711L14.3638 15.1165Z" fill="#233447" stroke="#233447" stroke-linecap="round" stroke-linejoin="round"/>
    <path d="M7.71127 20.0302L8.15296 16.3311L5.30957 16.4139L7.71127 20.0302Z" fill="#CC6228" stroke="#CC6228" stroke-linecap="round" stroke-linejoin="round"/>
    <path d="M16.8486 16.3311L17.2627 20.0302L19.692 16.4139L16.8486 16.3311Z" fill="#CC6228" stroke="#CC6228" stroke-linecap="round" stroke-linejoin="round"/>
    <path d="M19.0011 12.2729L13.894 12.4938L14.3633 15.1163L15.1087 13.5428L16.9307 14.371L19.0011 12.2729Z" fill="#CC6228" stroke="#CC6228" stroke-linecap="round" stroke-linejoin="round"/>
    <path d="M8.06994 14.371L9.86431 13.5428L10.6373 15.1163L11.1066 12.4938L5.99951 12.2729L8.06994 14.371Z" fill="#CC6228" stroke="#CC6228" stroke-linecap="round" stroke-linejoin="round"/>
    <path d="M5.99854 12.2729L8.12417 16.4414L8.06896 14.371L5.99854 12.2729Z" fill="#E27525" stroke="#E27525" stroke-linecap="round" stroke-linejoin="round"/>
    <path d="M16.9305 14.371L16.8477 16.4414L19.0009 12.2729L16.9305 14.371Z" fill="#E27525" stroke="#E27525" stroke-linecap="round" stroke-linejoin="round"/>
    <path d="M11.106 12.4937L10.6367 15.1162L11.2164 18.2356L11.3545 14.1224L11.106 12.4937Z" fill="#E27525" stroke="#E27525" stroke-linecap="round" stroke-linejoin="round"/>
    <path d="M13.894 12.4937L13.6455 14.1224L13.7559 18.2356L14.3633 15.1162L13.894 12.4937Z" fill="#E27525" stroke="#E27525" stroke-linecap="round" stroke-linejoin="round"/>
    <path d="M14.3637 15.1164L13.7563 18.2359L14.198 18.5396L16.8482 16.4415L16.931 14.3711L14.3637 15.1164Z" fill="#F5841F" stroke="#F5841F" stroke-linecap="round" stroke-linejoin="round"/>
    <path d="M8.06934 14.3711L8.12455 16.4415L10.8023 18.5396L11.2164 18.2359L10.6367 15.1164L8.06934 14.3711Z" fill="#F5841F" stroke="#F5841F" stroke-linecap="round" stroke-linejoin="round"/>
    <path d="M14.4186 21.383L14.4462 20.5272L14.1978 20.3339H10.7747L10.5538 20.5272L10.5814 21.383L7.71045 20.0303L8.70425 20.8584L10.7471 22.2663H14.2254L16.2682 20.8584L17.262 20.0303L14.4186 21.383Z" fill="#C0AC9D" stroke="#C0AC9D" stroke-linecap="round" stroke-linejoin="round"/>
    <path d="M14.1982 18.5395L13.7565 18.2358H11.2167L10.8027 18.5395L10.5542 20.5271L10.775 20.3339H14.1982L14.4466 20.5271L14.1982 18.5395Z" fill="#161616" stroke="#161616" stroke-linecap="round" stroke-linejoin="round"/>
    <path d="M23.3352 7.91137L24.1082 4.1846L22.9488 0.733887L14.1978 7.24884L17.5657 10.0922L22.3138 11.4725L23.3629 10.2579L22.9212 9.92659L23.6389 9.26406L23.0868 8.82236L23.8045 8.27025L23.3352 7.91137Z" fill="#763E1A" stroke="#763E1A" stroke-linecap="round" stroke-linejoin="round"/>
    <path d="M0.89209 4.1846L1.66505 7.91137L1.16815 8.27025L1.8859 8.82236L1.33378 9.26406L2.07913 9.92659L1.60984 10.2579L2.65886 11.4725L7.43464 10.0922L10.8025 7.24884L2.02392 0.733887L0.89209 4.1846Z" fill="#763E1A" stroke="#763E1A" stroke-linecap="round" stroke-linejoin="round"/>
    <path d="M22.3146 11.4726L17.5664 10.0923L19.0019 12.2731L16.8486 16.4416L19.692 16.414H23.9157L22.3146 11.4726Z" fill="#F5841F" stroke="#F5841F" stroke-linecap="round" stroke-linejoin="round"/>
    <path d="M7.43476 10.0923L2.65898 11.4726L1.08545 16.414H5.30912L8.12491 16.4416L5.99927 12.2731L7.43476 10.0923Z" fill="#F5841F" stroke="#F5841F" stroke-linecap="round" stroke-linejoin="round"/>
    <path d="M13.895 12.4941L14.1986 7.24901L15.5789 3.49463H9.42285L10.8031 7.24901L11.1068 12.4941L11.2172 14.1504V18.2361H13.7569V14.1504L13.895 12.4941Z" fill="#F5841F" stroke="#F5841F" stroke-linecap="round" stroke-linejoin="round"/>
    </svg>
    